<svg width="16" height="16" viewBox="0 0 16 16" fill="none" xmlns="http://www.w3.org/2000/svg">
<mask id="path-1-inside-1_3316_1842" fill="white">
<path fill-rule="evenodd" clip-rule="evenodd" d="M11.0758 9.35726C11.6555 8.58662 12 7.62308 12 6.57771C12 4.04951 9.98528 2 7.5 2C5.01472 2 3 4.04951 3 6.57771C3 7.62318 3.34452 8.58679 3.92437 9.35747L6.66342 13.5401C7.05822 14.143 7.94178 14.143 8.33658 13.5401L11.0758 9.35726Z"/>
</mask>
<path d="M11.0758 9.35726L10.013 8.5577L9.98689 8.59235L9.96313 8.62863L11.0758 9.35726ZM3.92437 9.35747L5.03703 8.62884L5.01325 8.59253L4.98715 8.55785L3.92437 9.35747ZM6.66342 13.5401L5.55077 14.2687L6.66342 13.5401ZM8.33658 13.5401L7.22393 12.8115L8.33658 13.5401ZM10.67 6.57771C10.67 7.32665 10.4242 8.01109 10.013 8.5577L12.1386 10.1568C12.8869 9.16215 13.33 7.91951 13.33 6.57771H10.67ZM7.5 3.33C9.22937 3.33 10.67 4.76249 10.67 6.57771H13.33C13.33 3.33653 10.7412 0.67 7.5 0.67V3.33ZM4.33 6.57771C4.33 4.76249 5.77063 3.33 7.5 3.33V0.67C4.2588 0.67 1.67 3.33653 1.67 6.57771H4.33ZM4.98715 8.55785C4.57587 8.01121 4.33 7.32672 4.33 6.57771H1.67C1.67 7.91964 2.11318 9.16238 2.8616 10.1571L4.98715 8.55785ZM7.77607 12.8115L5.03703 8.62884L2.81172 10.0861L5.55077 14.2687L7.77607 12.8115ZM9.96313 8.62863L7.22393 12.8115L9.44923 14.2687L12.1884 10.0859L9.96313 8.62863ZM5.55077 14.2687C6.47065 15.6734 8.52935 15.6734 9.44923 14.2687L7.22393 12.8115C7.35421 12.6125 7.64579 12.6125 7.77607 12.8115L5.55077 14.2687Z" fill="black" fill-opacity="0.55" mask="url(#path-1-inside-1_3316_1842)"/>
<path d="M8.63501 6.57773C8.63501 7.23251 8.11617 7.74381 7.50001 7.74381C6.88386 7.74381 6.36501 7.23251 6.36501 6.57773C6.36501 5.92294 6.88386 5.41164 7.50001 5.41164C8.11617 5.41164 8.63501 5.92294 8.63501 6.57773Z" stroke="black" stroke-opacity="0.55" stroke-width="1.33"/>
</svg>
