<svg width="19" height="19" viewBox="0 0 19 19" fill="none" xmlns="http://www.w3.org/2000/svg">
<path d="M9.49999 1.97919C10.6135 1.97919 11.6703 2.22104 12.6211 2.65527L11.4277 3.78854C11.2834 3.93278 11.1792 4.11214 11.1254 4.30894C11.0716 4.50573 11.0701 4.71315 11.1209 4.91073L11.1427 4.98515L11.3224 5.54446C10.751 5.281 10.1292 5.14499 9.49999 5.14586C7.0953 5.14586 5.14582 7.09534 5.14582 9.50002C5.14582 11.9047 7.0953 13.8542 9.49999 13.8542C11.9047 13.8542 13.8542 11.9047 13.8542 9.50002C13.8542 8.96565 13.758 8.45344 13.5814 7.98002L14.5932 8.267C14.9926 8.4004 15.369 8.12648 15.6746 7.83L15.7249 7.78013L16.564 6.91207C16.8673 7.74114 17.0219 8.61722 17.0208 9.50002C17.0208 13.6535 13.6535 17.0209 9.49999 17.0209C5.34651 17.0209 1.97916 13.6535 1.97916 9.50002C1.97916 5.34654 5.34651 1.97919 9.49999 1.97919ZM9.49999 6.33336C10.0067 6.33336 10.4852 6.45211 10.9099 6.66388L8.96918 8.70084C8.62559 9.04442 8.73326 9.82619 9.16788 10.2386C9.58509 10.6345 10.4615 10.5965 10.8347 10.2885L10.8787 10.2489L12.5443 8.62523C12.7278 9.26345 12.706 9.94319 12.4819 10.5683C12.2579 11.1935 11.843 11.7323 11.296 12.1088C10.7489 12.4852 10.0973 12.6801 9.43343 12.666C8.76952 12.6518 8.12686 12.4293 7.59633 12.0299C7.0658 11.6305 6.67426 11.0744 6.47707 10.4403C6.27988 9.80623 6.28703 9.12618 6.4975 8.49636C6.70798 7.86653 7.11112 7.31881 7.64993 6.93065C8.18873 6.5425 8.83593 6.33355 9.49999 6.33336ZM14.854 2.092C14.8963 2.13436 14.9282 2.186 14.9471 2.24282L15.4973 3.89938L17.1526 4.44879C17.2149 4.46951 17.2708 4.50579 17.3151 4.55418C17.3594 4.60258 17.3906 4.66148 17.4058 4.72532C17.4209 4.78916 17.4195 4.8558 17.4017 4.91894C17.3838 4.98208 17.3502 5.03961 17.3038 5.08609L15.0773 7.31304C14.9761 7.41427 14.8488 7.4853 14.7095 7.51817C14.5702 7.55103 14.4245 7.54442 14.2888 7.49909L13.1084 7.10404L10.4856 9.72684C10.4324 9.78206 10.3686 9.82611 10.2982 9.85643C10.2277 9.88675 10.1519 9.90272 10.0751 9.90342C9.99843 9.90411 9.92235 9.88951 9.85133 9.86047C9.78032 9.83144 9.71581 9.78854 9.66156 9.73429C9.60731 9.68004 9.56441 9.61553 9.53537 9.54451C9.50633 9.4735 9.49173 9.39741 9.49243 9.3207C9.49312 9.24398 9.5091 9.16817 9.53941 9.09769C9.56973 9.02722 9.61379 8.96349 9.66901 8.91023L12.2863 6.29298L11.8944 5.10548C11.8498 4.97008 11.8437 4.82496 11.8768 4.68631C11.9099 4.54765 11.9808 4.42089 12.0816 4.32015L14.3098 2.09161C14.382 2.0195 14.4798 1.979 14.5819 1.979C14.6839 1.979 14.7818 2.0195 14.854 2.09161V2.092Z" fill="#BA2636"/>
</svg>
