<svg width="23" height="23" viewBox="0 0 23 23" fill="none" xmlns="http://www.w3.org/2000/svg">
<path d="M18.3615 4.80274C18.0942 4.42436 17.7151 4.13922 17.2774 3.98739L17.2723 3.98638L17.2683 3.98536C17.0877 3.91843 16.5705 3.73894 15.6741 3.5422C14.3025 3.24679 12.9031 3.09957 11.5 3.10309C10.066 3.10309 8.66151 3.25115 7.32592 3.54321C6.43046 3.73792 5.9153 3.91539 5.73479 3.98435L5.72971 3.98638L5.72464 3.98739C5.28513 4.13462 4.90398 4.41809 4.63651 4.79665C4.35908 5.17135 4.20589 5.62348 4.19841 6.08964V13.7107C4.19841 14.5646 4.72068 15.5827 5.41128 16.0776L10.1827 19.4972C10.5427 19.7548 11.0102 19.8978 11.499 19.8978C11.9878 19.8978 12.4553 19.7548 12.8153 19.4972L17.5887 16.0776C18.2803 15.5827 18.8016 14.5646 18.8016 13.7107V6.08964C18.8016 5.65053 18.6454 5.19418 18.3615 4.80274ZM15.0747 9.18267L10.7343 13.4764C10.6793 13.5314 10.6141 13.5751 10.5422 13.6048C10.4703 13.6346 10.3933 13.6499 10.3155 13.6499C10.2377 13.6499 10.1607 13.6346 10.0888 13.6048C10.017 13.5751 9.95169 13.5314 9.89669 13.4764L7.92526 11.5253C7.81858 11.4146 7.75974 11.2664 7.76145 11.1127C7.76316 10.959 7.82528 10.8121 7.93439 10.7038C8.044 10.5944 8.19212 10.5323 8.347 10.5308C8.50187 10.5293 8.65118 10.5885 8.76292 10.6957L10.3155 12.2321L14.2361 8.35212C14.3482 8.24517 14.4977 8.18628 14.6527 8.18798C14.8077 8.18969 14.9558 8.25186 15.0656 8.36125C15.1747 8.46952 15.2368 8.61638 15.2385 8.77009C15.2403 8.9238 15.1814 9.072 15.0747 9.18267Z" fill="#BA2636"/>
</svg>
