<svg width="15" height="15" viewBox="0 0 15 15" fill="none" xmlns="http://www.w3.org/2000/svg">
<path d="M4.375 1.875C4.375 1.54348 4.5067 1.22554 4.74112 0.991117C4.97554 0.756696 5.29348 0.625 5.625 0.625H9.375C9.53915 0.625 9.7017 0.657332 9.85335 0.720151C10.005 0.782969 10.1428 0.875043 10.2589 0.991117C10.375 1.10719 10.467 1.24499 10.5299 1.39665C10.5927 1.5483 10.625 1.71085 10.625 1.875H12.5C12.6642 1.875 12.8267 1.90733 12.9784 1.97015C13.13 2.03297 13.2678 2.12504 13.3839 2.24112C13.5 2.35719 13.592 2.49499 13.6549 2.64665C13.7177 2.7983 13.75 2.96085 13.75 3.125V13.125C13.75 13.2892 13.7177 13.4517 13.6549 13.6034C13.592 13.755 13.5 13.8928 13.3839 14.0089C13.2678 14.125 13.13 14.217 12.9784 14.2798C12.8267 14.3427 12.6642 14.375 12.5 14.375H2.5C2.33585 14.375 2.1733 14.3427 2.02165 14.2798C1.86999 14.217 1.73219 14.125 1.61612 14.0089C1.50004 13.8928 1.40797 13.755 1.34515 13.6034C1.28233 13.4517 1.25 13.2892 1.25 13.125V3.125C1.25 2.96085 1.28233 2.7983 1.34515 2.64665C1.40797 2.49499 1.50004 2.35719 1.61612 2.24112C1.73219 2.12504 1.86999 2.03297 2.02165 1.97015C2.1733 1.90733 2.33585 1.875 2.5 1.875H4.375ZM3.75 6.25C3.58426 6.25003 3.42531 6.31588 3.30812 6.43309C3.19093 6.5503 3.1251 6.70926 3.1251 6.875C3.1251 7.04074 3.19093 7.1997 3.30812 7.31691C3.42531 7.43412 3.58426 7.49997 3.75 7.5H8.75C8.91574 7.49997 9.07469 7.43412 9.19188 7.31691C9.30907 7.1997 9.3749 7.04074 9.3749 6.875C9.3749 6.70926 9.30907 6.5503 9.19188 6.43309C9.07469 6.31588 8.91574 6.25003 8.75 6.25H3.75ZM3.75 8.75C3.58424 8.75 3.42527 8.81585 3.30806 8.93306C3.19085 9.05027 3.125 9.20924 3.125 9.375C3.125 9.54076 3.19085 9.69973 3.30806 9.81694C3.42527 9.93415 3.58424 10 3.75 10H10C10.1658 10 10.3247 9.93415 10.4419 9.81694C10.5592 9.69973 10.625 9.54076 10.625 9.375C10.625 9.20924 10.5592 9.05027 10.4419 8.93306C10.3247 8.81585 10.1658 8.75 10 8.75H3.75Z" fill="#BA2636"/>
</svg>
