<svg width="243" height="177" viewBox="0 0 243 177" fill="none" xmlns="http://www.w3.org/2000/svg">
<path d="M82.5 1C82.3333 2.66667 81.6 6.2 80 7C78.603 7.69852 77.1042 8.44788 76.3027 8.84864C76.2136 8.8932 76.2365 9.02884 76.3351 9.04316C77.9186 9.27299 80.6279 10.0114 81 11.5C81.3335 12.8341 81.922 15.4197 82.3016 17.1117C82.3277 17.2283 82.5245 17.209 82.5325 17.0898C82.6546 15.2556 83.1504 12.5122 84.5 11.5C85.9522 10.4109 86.965 9.51393 87.389 9.10829C87.4415 9.05803 87.4237 8.97101 87.3566 8.94296C86.4086 8.54639 84.5167 7.39873 83.5 5.5C82.4291 3.5 82.3871 1.66667 82.5 1Z" stroke="#BA2636" stroke-linecap="round"/>
<path d="M5.52174 74C5.4058 75.1765 4.89565 77.6706 3.78261 78.2353C2.85915 78.7038 1.87184 79.2047 1.29744 79.4962C1.20892 79.5411 1.23266 79.6768 1.33068 79.6925C2.44239 79.8704 4.22687 80.3914 4.47826 81.4118C4.69311 82.2838 5.06002 83.9133 5.32283 85.0981C5.34875 85.2149 5.55539 85.1967 5.56604 85.0775C5.68036 83.7983 6.03976 82.0764 6.91304 81.4118C7.88844 80.6695 8.57891 80.0536 8.89082 79.7543C8.9429 79.7044 8.92493 79.618 8.85886 79.5889C8.187 79.2934 6.91012 78.4893 6.21739 77.1765C5.47243 75.7647 5.44322 74.4706 5.52174 74Z" stroke="#BA2636" stroke-linecap="round"/>
<path d="M17.8261 88C17.7536 88.7843 17.4348 90.4471 16.7391 90.8235C16.2079 91.111 15.6428 91.4168 15.2763 91.6152C15.1906 91.6616 15.2145 91.7954 15.3102 91.8138C16.0071 91.9479 17.0244 92.2938 17.1739 92.9412C17.2886 93.4377 17.4726 94.3024 17.6262 95.0363C17.6508 95.1542 17.8772 95.1383 17.8924 95.0188C17.9931 94.2296 18.225 93.3233 18.6957 92.9412C19.2741 92.4716 19.6922 92.078 19.9 91.8685C19.9492 91.8189 19.9314 91.7361 19.8687 91.7052C19.4393 91.493 18.6795 90.9638 18.2609 90.1176C17.7953 89.1765 17.777 88.3137 17.8261 88Z" stroke="#BA2636" stroke-linecap="round"/>
<path d="M86.5 99L118 98V92" stroke="#282828"/>
<path d="M127 92.5V98H167.5C173.167 98.3333 186.4 102.7 194 117.5C201.6 132.3 212.833 162 217.5 175" stroke="#282828"/>
<path d="M111 78.3271C110.833 80.9938 111 86.8271 113 88.8271C115.5 91.3271 118 92.8271 122.5 92.8271C127 92.8271 130 90.8271 131.5 88.8271C133 86.8271 134.5 84.8271 134.5 81.8271C134.5 79.4271 134.5 76.4938 134.5 75.3271" stroke="#282828"/>
<path d="M115.5 62.3272C120.7 59.5272 125.667 59.8272 127.5 60.3272C129 60.5847 131.5 63.3272 132 64.8272C132.5 66.3272 133 67.8272 135.5 68.8272C137.5 69.6272 137.333 73.8272 137 75.8272C136 76.1605 134 76.7272 134 76.3272C134 75.8272 133.5 76.3272 132.5 76.3272C131.5 76.3272 129.5 78.8272 130 77.3272C130.5 75.8272 129.5 74.8272 129 74.8272C128.5 74.8272 122.5 78.8272 121.5 78.8272H111C109.5 78.8272 109 77.3272 108 74.8272C107 72.3272 109 65.8272 115.5 62.3272Z" fill="#282828"/>
<path d="M106.5 80.3271C106.5 78.6703 107.843 77.3271 109.5 77.3271H110.5V83.3271H109.5C107.843 83.3271 106.5 81.984 106.5 80.3271Z" stroke="#282828"/>
<path d="M138.5 80.3271C138.5 78.6703 137.157 77.3271 135.5 77.3271H134.5V83.3271H135.5C137.157 83.3271 138.5 81.984 138.5 80.3271Z" stroke="#282828"/>
<path d="M119.5 84.8271L119.026 84.669L118.96 84.8655L119.053 85.0508L119.5 84.8271ZM123.696 86.3271C123.972 86.3271 124.196 86.1033 124.196 85.8271C124.196 85.551 123.972 85.3271 123.696 85.3271V86.3271ZM121.026 78.669L119.026 84.669L119.974 84.9853L121.974 78.9853L121.026 78.669ZM119.053 85.0508C119.165 85.2754 119.383 85.5825 119.696 85.8388C120.012 86.0985 120.454 86.3271 121 86.3271V85.3271C120.746 85.3271 120.521 85.2224 120.329 85.0655C120.134 84.9051 120.002 84.7122 119.947 84.6035L119.053 85.0508ZM121 86.3271C121.002 86.3271 121.003 86.3271 121.005 86.3271C121.006 86.3271 121.008 86.3271 121.009 86.3271C121.011 86.3271 121.013 86.3271 121.014 86.3271C121.016 86.3271 121.017 86.3271 121.019 86.3271C121.02 86.3271 121.022 86.3271 121.024 86.3271C121.025 86.3271 121.027 86.3271 121.028 86.3271C121.03 86.3271 121.032 86.3271 121.033 86.3271C121.035 86.3271 121.036 86.3271 121.038 86.3271C121.039 86.3271 121.041 86.3271 121.043 86.3271C121.044 86.3271 121.046 86.3271 121.047 86.3271C121.049 86.3271 121.051 86.3271 121.052 86.3271C121.054 86.3271 121.055 86.3271 121.057 86.3271C121.059 86.3271 121.06 86.3271 121.062 86.3271C121.064 86.3271 121.065 86.3271 121.067 86.3271C121.068 86.3271 121.07 86.3271 121.072 86.3271C121.073 86.3271 121.075 86.3271 121.077 86.3271C121.078 86.3271 121.08 86.3271 121.081 86.3271C121.083 86.3271 121.085 86.3271 121.086 86.3271C121.088 86.3271 121.09 86.3271 121.091 86.3271C121.093 86.3271 121.094 86.3271 121.096 86.3271C121.098 86.3271 121.099 86.3271 121.101 86.3271C121.103 86.3271 121.104 86.3271 121.106 86.3271C121.108 86.3271 121.109 86.3271 121.111 86.3271C121.113 86.3271 121.114 86.3271 121.116 86.3271C121.118 86.3271 121.119 86.3271 121.121 86.3271C121.122 86.3271 121.124 86.3271 121.126 86.3271C121.127 86.3271 121.129 86.3271 121.131 86.3271C121.132 86.3271 121.134 86.3271 121.136 86.3271C121.137 86.3271 121.139 86.3271 121.141 86.3271C121.142 86.3271 121.144 86.3271 121.146 86.3271C121.148 86.3271 121.149 86.3271 121.151 86.3271C121.153 86.3271 121.154 86.3271 121.156 86.3271C121.158 86.3271 121.159 86.3271 121.161 86.3271C121.163 86.3271 121.164 86.3271 121.166 86.3271C121.168 86.3271 121.169 86.3271 121.171 86.3271C121.173 86.3271 121.174 86.3271 121.176 86.3271C121.178 86.3271 121.18 86.3271 121.181 86.3271C121.183 86.3271 121.185 86.3271 121.186 86.3271C121.188 86.3271 121.19 86.3271 121.191 86.3271C121.193 86.3271 121.195 86.3271 121.197 86.3271C121.198 86.3271 121.2 86.3271 121.202 86.3271C121.203 86.3271 121.205 86.3271 121.207 86.3271C121.209 86.3271 121.21 86.3271 121.212 86.3271C121.214 86.3271 121.215 86.3271 121.217 86.3271C121.219 86.3271 121.221 86.3271 121.222 86.3271C121.224 86.3271 121.226 86.3271 121.228 86.3271C121.229 86.3271 121.231 86.3271 121.233 86.3271C121.234 86.3271 121.236 86.3271 121.238 86.3271C121.24 86.3271 121.241 86.3271 121.243 86.3271C121.245 86.3271 121.247 86.3271 121.248 86.3271C121.25 86.3271 121.252 86.3271 121.254 86.3271C121.255 86.3271 121.257 86.3271 121.259 86.3271C121.261 86.3271 121.262 86.3271 121.264 86.3271C121.266 86.3271 121.268 86.3271 121.269 86.3271C121.271 86.3271 121.273 86.3271 121.275 86.3271C121.276 86.3271 121.278 86.3271 121.28 86.3271C121.282 86.3271 121.283 86.3271 121.285 86.3271C121.287 86.3271 121.289 86.3271 121.29 86.3271C121.292 86.3271 121.294 86.3271 121.296 86.3271C121.297 86.3271 121.299 86.3271 121.301 86.3271C121.303 86.3271 121.305 86.3271 121.306 86.3271C121.308 86.3271 121.31 86.3271 121.312 86.3271C121.313 86.3271 121.315 86.3271 121.317 86.3271C121.319 86.3271 121.321 86.3271 121.322 86.3271C121.324 86.3271 121.326 86.3271 121.328 86.3271C121.329 86.3271 121.331 86.3271 121.333 86.3271C121.335 86.3271 121.337 86.3271 121.338 86.3271C121.34 86.3271 121.342 86.3271 121.344 86.3271C121.346 86.3271 121.347 86.3271 121.349 86.3271C121.351 86.3271 121.353 86.3271 121.355 86.3271C121.356 86.3271 121.358 86.3271 121.36 86.3271C121.362 86.3271 121.364 86.3271 121.365 86.3271C121.367 86.3271 121.369 86.3271 121.371 86.3271C121.373 86.3271 121.374 86.3271 121.376 86.3271C121.378 86.3271 121.38 86.3271 121.382 86.3271C121.383 86.3271 121.385 86.3271 121.387 86.3271C121.389 86.3271 121.391 86.3271 121.393 86.3271C121.394 86.3271 121.396 86.3271 121.398 86.3271C121.4 86.3271 121.402 86.3271 121.403 86.3271C121.405 86.3271 121.407 86.3271 121.409 86.3271C121.411 86.3271 121.413 86.3271 121.414 86.3271C121.416 86.3271 121.418 86.3271 121.42 86.3271C121.422 86.3271 121.424 86.3271 121.425 86.3271C121.427 86.3271 121.429 86.3271 121.431 86.3271C121.433 86.3271 121.435 86.3271 121.436 86.3271C121.438 86.3271 121.44 86.3271 121.442 86.3271C121.444 86.3271 121.446 86.3271 121.447 86.3271C121.449 86.3271 121.451 86.3271 121.453 86.3271C121.455 86.3271 121.457 86.3271 121.458 86.3271C121.46 86.3271 121.462 86.3271 121.464 86.3271C121.466 86.3271 121.468 86.3271 121.47 86.3271C121.471 86.3271 121.473 86.3271 121.475 86.3271C121.477 86.3271 121.479 86.3271 121.481 86.3271C121.483 86.3271 121.484 86.3271 121.486 86.3271C121.488 86.3271 121.49 86.3271 121.492 86.3271C121.494 86.3271 121.496 86.3271 121.497 86.3271C121.499 86.3271 121.501 86.3271 121.503 86.3271C121.505 86.3271 121.507 86.3271 121.509 86.3271C121.51 86.3271 121.512 86.3271 121.514 86.3271C121.516 86.3271 121.518 86.3271 121.52 86.3271C121.522 86.3271 121.524 86.3271 121.525 86.3271C121.527 86.3271 121.529 86.3271 121.531 86.3271C121.533 86.3271 121.535 86.3271 121.537 86.3271C121.539 86.3271 121.54 86.3271 121.542 86.3271C121.544 86.3271 121.546 86.3271 121.548 86.3271C121.55 86.3271 121.552 86.3271 121.554 86.3271C121.555 86.3271 121.557 86.3271 121.559 86.3271C121.561 86.3271 121.563 86.3271 121.565 86.3271C121.567 86.3271 121.569 86.3271 121.571 86.3271C121.572 86.3271 121.574 86.3271 121.576 86.3271C121.578 86.3271 121.58 86.3271 121.582 86.3271C121.584 86.3271 121.586 86.3271 121.588 86.3271C121.59 86.3271 121.591 86.3271 121.593 86.3271C121.595 86.3271 121.597 86.3271 121.599 86.3271C121.601 86.3271 121.603 86.3271 121.605 86.3271C121.607 86.3271 121.609 86.3271 121.61 86.3271C121.612 86.3271 121.614 86.3271 121.616 86.3271C121.618 86.3271 121.62 86.3271 121.622 86.3271C121.624 86.3271 121.626 86.3271 121.628 86.3271C121.629 86.3271 121.631 86.3271 121.633 86.3271C121.635 86.3271 121.637 86.3271 121.639 86.3271C121.641 86.3271 121.643 86.3271 121.645 86.3271C121.647 86.3271 121.649 86.3271 121.65 86.3271C121.652 86.3271 121.654 86.3271 121.656 86.3271C121.658 86.3271 121.66 86.3271 121.662 86.3271C121.664 86.3271 121.666 86.3271 121.668 86.3271C121.67 86.3271 121.672 86.3271 121.673 86.3271C121.675 86.3271 121.677 86.3271 121.679 86.3271C121.681 86.3271 121.683 86.3271 121.685 86.3271C121.687 86.3271 121.689 86.3271 121.691 86.3271C121.693 86.3271 121.695 86.3271 121.697 86.3271C121.699 86.3271 121.7 86.3271 121.702 86.3271C121.704 86.3271 121.706 86.3271 121.708 86.3271C121.71 86.3271 121.712 86.3271 121.714 86.3271C121.716 86.3271 121.718 86.3271 121.72 86.3271C121.722 86.3271 121.724 86.3271 121.726 86.3271C121.727 86.3271 121.729 86.3271 121.731 86.3271C121.733 86.3271 121.735 86.3271 121.737 86.3271C121.739 86.3271 121.741 86.3271 121.743 86.3271C121.745 86.3271 121.747 86.3271 121.749 86.3271C121.751 86.3271 121.753 86.3271 121.755 86.3271C121.757 86.3271 121.758 86.3271 121.76 86.3271C121.762 86.3271 121.764 86.3271 121.766 86.3271C121.768 86.3271 121.77 86.3271 121.772 86.3271C121.774 86.3271 121.776 86.3271 121.778 86.3271C121.78 86.3271 121.782 86.3271 121.784 86.3271C121.786 86.3271 121.788 86.3271 121.79 86.3271C121.792 86.3271 121.794 86.3271 121.795 86.3271C121.797 86.3271 121.799 86.3271 121.801 86.3271C121.803 86.3271 121.805 86.3271 121.807 86.3271C121.809 86.3271 121.811 86.3271 121.813 86.3271C121.815 86.3271 121.817 86.3271 121.819 86.3271C121.821 86.3271 121.823 86.3271 121.825 86.3271C121.827 86.3271 121.829 86.3271 121.831 86.3271C121.833 86.3271 121.835 86.3271 121.837 86.3271C121.838 86.3271 121.84 86.3271 121.842 86.3271C121.844 86.3271 121.846 86.3271 121.848 86.3271C121.85 86.3271 121.852 86.3271 121.854 86.3271C121.856 86.3271 121.858 86.3271 121.86 86.3271C121.862 86.3271 121.864 86.3271 121.866 86.3271C121.868 86.3271 121.87 86.3271 121.872 86.3271C121.874 86.3271 121.876 86.3271 121.878 86.3271C121.88 86.3271 121.882 86.3271 121.884 86.3271C121.886 86.3271 121.888 86.3271 121.89 86.3271C121.891 86.3271 121.893 86.3271 121.895 86.3271C121.897 86.3271 121.899 86.3271 121.901 86.3271C121.903 86.3271 121.905 86.3271 121.907 86.3271C121.909 86.3271 121.911 86.3271 121.913 86.3271C121.915 86.3271 121.917 86.3271 121.919 86.3271C121.921 86.3271 121.923 86.3271 121.925 86.3271C121.927 86.3271 121.929 86.3271 121.931 86.3271C121.933 86.3271 121.935 86.3271 121.937 86.3271C121.939 86.3271 121.941 86.3271 121.943 86.3271C121.945 86.3271 121.947 86.3271 121.949 86.3271C121.951 86.3271 121.953 86.3271 121.955 86.3271C121.957 86.3271 121.959 86.3271 121.96 86.3271C121.962 86.3271 121.964 86.3271 121.966 86.3271C121.968 86.3271 121.97 86.3271 121.972 86.3271C121.974 86.3271 121.976 86.3271 121.978 86.3271C121.98 86.3271 121.982 86.3271 121.984 86.3271C121.986 86.3271 121.988 86.3271 121.99 86.3271C121.992 86.3271 121.994 86.3271 121.996 86.3271C121.998 86.3271 122 86.3271 122.002 86.3271C122.004 86.3271 122.006 86.3271 122.008 86.3271C122.01 86.3271 122.012 86.3271 122.014 86.3271C122.016 86.3271 122.018 86.3271 122.02 86.3271C122.022 86.3271 122.024 86.3271 122.026 86.3271C122.028 86.3271 122.03 86.3271 122.032 86.3271C122.034 86.3271 122.036 86.3271 122.038 86.3271C122.04 86.3271 122.042 86.3271 122.044 86.3271C122.046 86.3271 122.048 86.3271 122.05 86.3271C122.052 86.3271 122.054 86.3271 122.056 86.3271C122.058 86.3271 122.06 86.3271 122.061 86.3271C122.063 86.3271 122.065 86.3271 122.067 86.3271C122.069 86.3271 122.071 86.3271 122.073 86.3271C122.075 86.3271 122.077 86.3271 122.079 86.3271C122.081 86.3271 122.083 86.3271 122.085 86.3271C122.087 86.3271 122.089 86.3271 122.091 86.3271C122.093 86.3271 122.095 86.3271 122.097 86.3271C122.099 86.3271 122.101 86.3271 122.103 86.3271C122.105 86.3271 122.107 86.3271 122.109 86.3271C122.111 86.3271 122.113 86.3271 122.115 86.3271C122.117 86.3271 122.119 86.3271 122.121 86.3271C122.123 86.3271 122.125 86.3271 122.127 86.3271C122.129 86.3271 122.131 86.3271 122.133 86.3271C122.135 86.3271 122.137 86.3271 122.139 86.3271C122.141 86.3271 122.143 86.3271 122.145 86.3271C122.147 86.3271 122.149 86.3271 122.151 86.3271C122.153 86.3271 122.155 86.3271 122.157 86.3271C122.159 86.3271 122.161 86.3271 122.163 86.3271C122.165 86.3271 122.167 86.3271 122.169 86.3271C122.171 86.3271 122.173 86.3271 122.175 86.3271C122.177 86.3271 122.179 86.3271 122.181 86.3271C122.183 86.3271 122.185 86.3271 122.187 86.3271C122.189 86.3271 122.191 86.3271 122.193 86.3271C122.195 86.3271 122.197 86.3271 122.199 86.3271C122.201 86.3271 122.203 86.3271 122.205 86.3271C122.206 86.3271 122.208 86.3271 122.21 86.3271C122.212 86.3271 122.214 86.3271 122.216 86.3271C122.218 86.3271 122.22 86.3271 122.222 86.3271C122.224 86.3271 122.226 86.3271 122.228 86.3271C122.23 86.3271 122.232 86.3271 122.234 86.3271C122.236 86.3271 122.238 86.3271 122.24 86.3271C122.242 86.3271 122.244 86.3271 122.246 86.3271C122.248 86.3271 122.25 86.3271 122.252 86.3271C122.254 86.3271 122.256 86.3271 122.258 86.3271C122.26 86.3271 122.262 86.3271 122.264 86.3271C122.266 86.3271 122.268 86.3271 122.27 86.3271C122.272 86.3271 122.274 86.3271 122.276 86.3271C122.278 86.3271 122.28 86.3271 122.282 86.3271C122.284 86.3271 122.286 86.3271 122.288 86.3271C122.29 86.3271 122.292 86.3271 122.294 86.3271C122.296 86.3271 122.298 86.3271 122.3 86.3271C122.302 86.3271 122.304 86.3271 122.306 86.3271C122.308 86.3271 122.31 86.3271 122.312 86.3271C122.314 86.3271 122.316 86.3271 122.318 86.3271C122.32 86.3271 122.322 86.3271 122.324 86.3271C122.326 86.3271 122.327 86.3271 122.329 86.3271C122.331 86.3271 122.333 86.3271 122.335 86.3271C122.337 86.3271 122.339 86.3271 122.341 86.3271C122.343 86.3271 122.345 86.3271 122.347 86.3271C122.349 86.3271 122.351 86.3271 122.353 86.3271C122.355 86.3271 122.357 86.3271 122.359 86.3271C122.361 86.3271 122.363 86.3271 122.365 86.3271C122.367 86.3271 122.369 86.3271 122.371 86.3271C122.373 86.3271 122.375 86.3271 122.377 86.3271C122.379 86.3271 122.381 86.3271 122.383 86.3271C122.385 86.3271 122.387 86.3271 122.389 86.3271C122.391 86.3271 122.393 86.3271 122.395 86.3271C122.397 86.3271 122.399 86.3271 122.401 86.3271C122.403 86.3271 122.405 86.3271 122.406 86.3271C122.408 86.3271 122.41 86.3271 122.412 86.3271C122.414 86.3271 122.416 86.3271 122.418 86.3271C122.42 86.3271 122.422 86.3271 122.424 86.3271C122.426 86.3271 122.428 86.3271 122.43 86.3271C122.432 86.3271 122.434 86.3271 122.436 86.3271C122.438 86.3271 122.44 86.3271 122.442 86.3271C122.444 86.3271 122.446 86.3271 122.448 86.3271C122.45 86.3271 122.452 86.3271 122.454 86.3271C122.456 86.3271 122.458 86.3271 122.46 86.3271C122.462 86.3271 122.464 86.3271 122.465 86.3271C122.467 86.3271 122.469 86.3271 122.471 86.3271C122.473 86.3271 122.475 86.3271 122.477 86.3271C122.479 86.3271 122.481 86.3271 122.483 86.3271C122.485 86.3271 122.487 86.3271 122.489 86.3271C122.491 86.3271 122.493 86.3271 122.495 86.3271C122.497 86.3271 122.499 86.3271 122.501 86.3271C122.503 86.3271 122.505 86.3271 122.507 86.3271C122.509 86.3271 122.511 86.3271 122.512 86.3271C122.514 86.3271 122.516 86.3271 122.518 86.3271C122.52 86.3271 122.522 86.3271 122.524 86.3271C122.526 86.3271 122.528 86.3271 122.53 86.3271C122.532 86.3271 122.534 86.3271 122.536 86.3271C122.538 86.3271 122.54 86.3271 122.542 86.3271C122.544 86.3271 122.546 86.3271 122.548 86.3271C122.549 86.3271 122.551 86.3271 122.553 86.3271C122.555 86.3271 122.557 86.3271 122.559 86.3271C122.561 86.3271 122.563 86.3271 122.565 86.3271C122.567 86.3271 122.569 86.3271 122.571 86.3271C122.573 86.3271 122.575 86.3271 122.577 86.3271C122.579 86.3271 122.581 86.3271 122.582 86.3271C122.584 86.3271 122.586 86.3271 122.588 86.3271C122.59 86.3271 122.592 86.3271 122.594 86.3271C122.596 86.3271 122.598 86.3271 122.6 86.3271C122.602 86.3271 122.604 86.3271 122.606 86.3271C122.608 86.3271 122.61 86.3271 122.612 86.3271C122.613 86.3271 122.615 86.3271 122.617 86.3271C122.619 86.3271 122.621 86.3271 122.623 86.3271C122.625 86.3271 122.627 86.3271 122.629 86.3271C122.631 86.3271 122.633 86.3271 122.635 86.3271C122.637 86.3271 122.638 86.3271 122.64 86.3271C122.642 86.3271 122.644 86.3271 122.646 86.3271C122.648 86.3271 122.65 86.3271 122.652 86.3271C122.654 86.3271 122.656 86.3271 122.658 86.3271C122.66 86.3271 122.662 86.3271 122.663 86.3271C122.665 86.3271 122.667 86.3271 122.669 86.3271C122.671 86.3271 122.673 86.3271 122.675 86.3271C122.677 86.3271 122.679 86.3271 122.681 86.3271C122.683 86.3271 122.685 86.3271 122.686 86.3271C122.688 86.3271 122.69 86.3271 122.692 86.3271C122.694 86.3271 122.696 86.3271 122.698 86.3271C122.7 86.3271 122.702 86.3271 122.704 86.3271C122.705 86.3271 122.707 86.3271 122.709 86.3271C122.711 86.3271 122.713 86.3271 122.715 86.3271C122.717 86.3271 122.719 86.3271 122.721 86.3271C122.723 86.3271 122.724 86.3271 122.726 86.3271C122.728 86.3271 122.73 86.3271 122.732 86.3271C122.734 86.3271 122.736 86.3271 122.738 86.3271C122.74 86.3271 122.742 86.3271 122.743 86.3271C122.745 86.3271 122.747 86.3271 122.749 86.3271C122.751 86.3271 122.753 86.3271 122.755 86.3271C122.757 86.3271 122.759 86.3271 122.76 86.3271C122.762 86.3271 122.764 86.3271 122.766 86.3271C122.768 86.3271 122.77 86.3271 122.772 86.3271C122.774 86.3271 122.776 86.3271 122.777 86.3271C122.779 86.3271 122.781 86.3271 122.783 86.3271C122.785 86.3271 122.787 86.3271 122.789 86.3271C122.791 86.3271 122.792 86.3271 122.794 86.3271C122.796 86.3271 122.798 86.3271 122.8 86.3271C122.802 86.3271 122.804 86.3271 122.806 86.3271C122.807 86.3271 122.809 86.3271 122.811 86.3271C122.813 86.3271 122.815 86.3271 122.817 86.3271C122.819 86.3271 122.82 86.3271 122.822 86.3271C122.824 86.3271 122.826 86.3271 122.828 86.3271C122.83 86.3271 122.832 86.3271 122.833 86.3271C122.835 86.3271 122.837 86.3271 122.839 86.3271C122.841 86.3271 122.843 86.3271 122.845 86.3271C122.846 86.3271 122.848 86.3271 122.85 86.3271C122.852 86.3271 122.854 86.3271 122.856 86.3271C122.858 86.3271 122.859 86.3271 122.861 86.3271C122.863 86.3271 122.865 86.3271 122.867 86.3271C122.869 86.3271 122.87 86.3271 122.872 86.3271C122.874 86.3271 122.876 86.3271 122.878 86.3271C122.88 86.3271 122.882 86.3271 122.883 86.3271C122.885 86.3271 122.887 86.3271 122.889 86.3271C122.891 86.3271 122.893 86.3271 122.894 86.3271C122.896 86.3271 122.898 86.3271 122.9 86.3271C122.902 86.3271 122.904 86.3271 122.905 86.3271C122.907 86.3271 122.909 86.3271 122.911 86.3271C122.913 86.3271 122.914 86.3271 122.916 86.3271C122.918 86.3271 122.92 86.3271 122.922 86.3271C122.924 86.3271 122.925 86.3271 122.927 86.3271C122.929 86.3271 122.931 86.3271 122.933 86.3271C122.934 86.3271 122.936 86.3271 122.938 86.3271C122.94 86.3271 122.942 86.3271 122.944 86.3271C122.945 86.3271 122.947 86.3271 122.949 86.3271C122.951 86.3271 122.953 86.3271 122.954 86.3271C122.956 86.3271 122.958 86.3271 122.96 86.3271C122.962 86.3271 122.963 86.3271 122.965 86.3271C122.967 86.3271 122.969 86.3271 122.971 86.3271C122.972 86.3271 122.974 86.3271 122.976 86.3271C122.978 86.3271 122.98 86.3271 122.981 86.3271C122.983 86.3271 122.985 86.3271 122.987 86.3271C122.989 86.3271 122.99 86.3271 122.992 86.3271C122.994 86.3271 122.996 86.3271 122.997 86.3271C122.999 86.3271 123.001 86.3271 123.003 86.3271C123.005 86.3271 123.006 86.3271 123.008 86.3271C123.01 86.3271 123.012 86.3271 123.013 86.3271C123.015 86.3271 123.017 86.3271 123.019 86.3271C123.021 86.3271 123.022 86.3271 123.024 86.3271C123.026 86.3271 123.028 86.3271 123.029 86.3271C123.031 86.3271 123.033 86.3271 123.035 86.3271C123.036 86.3271 123.038 86.3271 123.04 86.3271C123.042 86.3271 123.043 86.3271 123.045 86.3271C123.047 86.3271 123.049 86.3271 123.051 86.3271C123.052 86.3271 123.054 86.3271 123.056 86.3271C123.058 86.3271 123.059 86.3271 123.061 86.3271C123.063 86.3271 123.065 86.3271 123.066 86.3271C123.068 86.3271 123.07 86.3271 123.071 86.3271C123.073 86.3271 123.075 86.3271 123.077 86.3271C123.078 86.3271 123.08 86.3271 123.082 86.3271C123.084 86.3271 123.085 86.3271 123.087 86.3271C123.089 86.3271 123.091 86.3271 123.092 86.3271C123.094 86.3271 123.096 86.3271 123.097 86.3271C123.099 86.3271 123.101 86.3271 123.103 86.3271C123.104 86.3271 123.106 86.3271 123.108 86.3271C123.11 86.3271 123.111 86.3271 123.113 86.3271C123.115 86.3271 123.116 86.3271 123.118 86.3271C123.12 86.3271 123.122 86.3271 123.123 86.3271C123.125 86.3271 123.127 86.3271 123.128 86.3271C123.13 86.3271 123.132 86.3271 123.134 86.3271C123.135 86.3271 123.137 86.3271 123.139 86.3271C123.14 86.3271 123.142 86.3271 123.144 86.3271C123.145 86.3271 123.147 86.3271 123.149 86.3271C123.15 86.3271 123.152 86.3271 123.154 86.3271C123.156 86.3271 123.157 86.3271 123.159 86.3271C123.161 86.3271 123.162 86.3271 123.164 86.3271C123.166 86.3271 123.167 86.3271 123.169 86.3271C123.171 86.3271 123.172 86.3271 123.174 86.3271C123.176 86.3271 123.177 86.3271 123.179 86.3271C123.181 86.3271 123.182 86.3271 123.184 86.3271C123.186 86.3271 123.187 86.3271 123.189 86.3271C123.191 86.3271 123.192 86.3271 123.194 86.3271C123.196 86.3271 123.197 86.3271 123.199 86.3271C123.201 86.3271 123.202 86.3271 123.204 86.3271C123.206 86.3271 123.207 86.3271 123.209 86.3271C123.211 86.3271 123.212 86.3271 123.214 86.3271C123.216 86.3271 123.217 86.3271 123.219 86.3271C123.221 86.3271 123.222 86.3271 123.224 86.3271C123.225 86.3271 123.227 86.3271 123.229 86.3271C123.23 86.3271 123.232 86.3271 123.234 86.3271C123.235 86.3271 123.237 86.3271 123.239 86.3271C123.24 86.3271 123.242 86.3271 123.243 86.3271C123.245 86.3271 123.247 86.3271 123.248 86.3271C123.25 86.3271 123.252 86.3271 123.253 86.3271C123.255 86.3271 123.256 86.3271 123.258 86.3271C123.26 86.3271 123.261 86.3271 123.263 86.3271C123.264 86.3271 123.266 86.3271 123.268 86.3271C123.269 86.3271 123.271 86.3271 123.272 86.3271C123.274 86.3271 123.276 86.3271 123.277 86.3271C123.279 86.3271 123.28 86.3271 123.282 86.3271C123.284 86.3271 123.285 86.3271 123.287 86.3271C123.288 86.3271 123.29 86.3271 123.292 86.3271C123.293 86.3271 123.295 86.3271 123.296 86.3271C123.298 86.3271 123.3 86.3271 123.301 86.3271C123.303 86.3271 123.304 86.3271 123.306 86.3271C123.307 86.3271 123.309 86.3271 123.311 86.3271C123.312 86.3271 123.314 86.3271 123.315 86.3271C123.317 86.3271 123.318 86.3271 123.32 86.3271C123.322 86.3271 123.323 86.3271 123.325 86.3271C123.326 86.3271 123.328 86.3271 123.329 86.3271C123.331 86.3271 123.332 86.3271 123.334 86.3271C123.336 86.3271 123.337 86.3271 123.339 86.3271C123.34 86.3271 123.342 86.3271 123.343 86.3271C123.345 86.3271 123.346 86.3271 123.348 86.3271C123.349 86.3271 123.351 86.3271 123.353 86.3271C123.354 86.3271 123.356 86.3271 123.357 86.3271C123.359 86.3271 123.36 86.3271 123.362 86.3271C123.363 86.3271 123.365 86.3271 123.366 86.3271C123.368 86.3271 123.369 86.3271 123.371 86.3271C123.372 86.3271 123.374 86.3271 123.375 86.3271C123.377 86.3271 123.378 86.3271 123.38 86.3271C123.381 86.3271 123.383 86.3271 123.384 86.3271C123.386 86.3271 123.387 86.3271 123.389 86.3271C123.39 86.3271 123.392 86.3271 123.393 86.3271C123.395 86.3271 123.396 86.3271 123.398 86.3271C123.399 86.3271 123.401 86.3271 123.402 86.3271C123.404 86.3271 123.405 86.3271 123.407 86.3271C123.408 86.3271 123.41 86.3271 123.411 86.3271C123.413 86.3271 123.414 86.3271 123.416 86.3271C123.417 86.3271 123.419 86.3271 123.42 86.3271C123.422 86.3271 123.423 86.3271 123.425 86.3271C123.426 86.3271 123.428 86.3271 123.429 86.3271C123.43 86.3271 123.432 86.3271 123.433 86.3271C123.435 86.3271 123.436 86.3271 123.438 86.3271C123.439 86.3271 123.441 86.3271 123.442 86.3271C123.444 86.3271 123.445 86.3271 123.446 86.3271C123.448 86.3271 123.449 86.3271 123.451 86.3271C123.452 86.3271 123.454 86.3271 123.455 86.3271C123.456 86.3271 123.458 86.3271 123.459 86.3271C123.461 86.3271 123.462 86.3271 123.464 86.3271C123.465 86.3271 123.466 86.3271 123.468 86.3271C123.469 86.3271 123.471 86.3271 123.472 86.3271C123.474 86.3271 123.475 86.3271 123.476 86.3271C123.478 86.3271 123.479 86.3271 123.481 86.3271C123.482 86.3271 123.483 86.3271 123.485 86.3271C123.486 86.3271 123.488 86.3271 123.489 86.3271C123.49 86.3271 123.492 86.3271 123.493 86.3271C123.495 86.3271 123.496 86.3271 123.497 86.3271C123.499 86.3271 123.5 86.3271 123.501 86.3271C123.503 86.3271 123.504 86.3271 123.506 86.3271C123.507 86.3271 123.508 86.3271 123.51 86.3271C123.511 86.3271 123.512 86.3271 123.514 86.3271C123.515 86.3271 123.517 86.3271 123.518 86.3271C123.519 86.3271 123.521 86.3271 123.522 86.3271C123.523 86.3271 123.525 86.3271 123.526 86.3271C123.527 86.3271 123.529 86.3271 123.53 86.3271C123.531 86.3271 123.533 86.3271 123.534 86.3271C123.536 86.3271 123.537 86.3271 123.538 86.3271C123.54 86.3271 123.541 86.3271 123.542 86.3271C123.544 86.3271 123.545 86.3271 123.546 86.3271C123.548 86.3271 123.549 86.3271 123.55 86.3271C123.551 86.3271 123.553 86.3271 123.554 86.3271C123.555 86.3271 123.557 86.3271 123.558 86.3271C123.559 86.3271 123.561 86.3271 123.562 86.3271C123.563 86.3271 123.565 86.3271 123.566 86.3271C123.567 86.3271 123.569 86.3271 123.57 86.3271C123.571 86.3271 123.572 86.3271 123.574 86.3271C123.575 86.3271 123.576 86.3271 123.578 86.3271C123.579 86.3271 123.58 86.3271 123.581 86.3271C123.583 86.3271 123.584 86.3271 123.585 86.3271C123.587 86.3271 123.588 86.3271 123.589 86.3271C123.59 86.3271 123.592 86.3271 123.593 86.3271C123.594 86.3271 123.595 86.3271 123.597 86.3271C123.598 86.3271 123.599 86.3271 123.6 86.3271C123.602 86.3271 123.603 86.3271 123.604 86.3271C123.605 86.3271 123.607 86.3271 123.608 86.3271C123.609 86.3271 123.61 86.3271 123.612 86.3271C123.613 86.3271 123.614 86.3271 123.615 86.3271C123.617 86.3271 123.618 86.3271 123.619 86.3271C123.62 86.3271 123.622 86.3271 123.623 86.3271C123.624 86.3271 123.625 86.3271 123.626 86.3271C123.628 86.3271 123.629 86.3271 123.63 86.3271C123.631 86.3271 123.632 86.3271 123.634 86.3271C123.635 86.3271 123.636 86.3271 123.637 86.3271C123.638 86.3271 123.64 86.3271 123.641 86.3271C123.642 86.3271 123.643 86.3271 123.644 86.3271C123.646 86.3271 123.647 86.3271 123.648 86.3271C123.649 86.3271 123.65 86.3271 123.652 86.3271C123.653 86.3271 123.654 86.3271 123.655 86.3271C123.656 86.3271 123.657 86.3271 123.659 86.3271C123.66 86.3271 123.661 86.3271 123.662 86.3271C123.663 86.3271 123.664 86.3271 123.666 86.3271C123.667 86.3271 123.668 86.3271 123.669 86.3271C123.67 86.3271 123.671 86.3271 123.672 86.3271C123.674 86.3271 123.675 86.3271 123.676 86.3271C123.677 86.3271 123.678 86.3271 123.679 86.3271C123.68 86.3271 123.682 86.3271 123.683 86.3271C123.684 86.3271 123.685 86.3271 123.686 86.3271C123.687 86.3271 123.688 86.3271 123.689 86.3271C123.691 86.3271 123.692 86.3271 123.693 86.3271C123.694 86.3271 123.695 86.3271 123.696 86.3271V85.3271C123.695 85.3271 123.694 85.3271 123.693 85.3271C123.692 85.3271 123.691 85.3271 123.689 85.3271C123.688 85.3271 123.687 85.3271 123.686 85.3271C123.685 85.3271 123.684 85.3271 123.683 85.3271C123.682 85.3271 123.68 85.3271 123.679 85.3271C123.678 85.3271 123.677 85.3271 123.676 85.3271C123.675 85.3271 123.674 85.3271 123.672 85.3271C123.671 85.3271 123.67 85.3271 123.669 85.3271C123.668 85.3271 123.667 85.3271 123.666 85.3271C123.664 85.3271 123.663 85.3271 123.662 85.3271C123.661 85.3271 123.66 85.3271 123.659 85.3271C123.657 85.3271 123.656 85.3271 123.655 85.3271C123.654 85.3271 123.653 85.3271 123.652 85.3271C123.65 85.3271 123.649 85.3271 123.648 85.3271C123.647 85.3271 123.646 85.3271 123.644 85.3271C123.643 85.3271 123.642 85.3271 123.641 85.3271C123.64 85.3271 123.638 85.3271 123.637 85.3271C123.636 85.3271 123.635 85.3271 123.634 85.3271C123.632 85.3271 123.631 85.3271 123.63 85.3271C123.629 85.3271 123.628 85.3271 123.626 85.3271C123.625 85.3271 123.624 85.3271 123.623 85.3271C123.622 85.3271 123.62 85.3271 123.619 85.3271C123.618 85.3271 123.617 85.3271 123.615 85.3271C123.614 85.3271 123.613 85.3271 123.612 85.3271C123.61 85.3271 123.609 85.3271 123.608 85.3271C123.607 85.3271 123.605 85.3271 123.604 85.3271C123.603 85.3271 123.602 85.3271 123.6 85.3271C123.599 85.3271 123.598 85.3271 123.597 85.3271C123.595 85.3271 123.594 85.3271 123.593 85.3271C123.592 85.3271 123.59 85.3271 123.589 85.3271C123.588 85.3271 123.587 85.3271 123.585 85.3271C123.584 85.3271 123.583 85.3271 123.581 85.3271C123.58 85.3271 123.579 85.3271 123.578 85.3271C123.576 85.3271 123.575 85.3271 123.574 85.3271C123.572 85.3271 123.571 85.3271 123.57 85.3271C123.569 85.3271 123.567 85.3271 123.566 85.3271C123.565 85.3271 123.563 85.3271 123.562 85.3271C123.561 85.3271 123.559 85.3271 123.558 85.3271C123.557 85.3271 123.555 85.3271 123.554 85.3271C123.553 85.3271 123.551 85.3271 123.55 85.3271C123.549 85.3271 123.548 85.3271 123.546 85.3271C123.545 85.3271 123.544 85.3271 123.542 85.3271C123.541 85.3271 123.54 85.3271 123.538 85.3271C123.537 85.3271 123.536 85.3271 123.534 85.3271C123.533 85.3271 123.531 85.3271 123.53 85.3271C123.529 85.3271 123.527 85.3271 123.526 85.3271C123.525 85.3271 123.523 85.3271 123.522 85.3271C123.521 85.3271 123.519 85.3271 123.518 85.3271C123.517 85.3271 123.515 85.3271 123.514 85.3271C123.512 85.3271 123.511 85.3271 123.51 85.3271C123.508 85.3271 123.507 85.3271 123.506 85.3271C123.504 85.3271 123.503 85.3271 123.501 85.3271C123.5 85.3271 123.499 85.3271 123.497 85.3271C123.496 85.3271 123.495 85.3271 123.493 85.3271C123.492 85.3271 123.49 85.3271 123.489 85.3271C123.488 85.3271 123.486 85.3271 123.485 85.3271C123.483 85.3271 123.482 85.3271 123.481 85.3271C123.479 85.3271 123.478 85.3271 123.476 85.3271C123.475 85.3271 123.474 85.3271 123.472 85.3271C123.471 85.3271 123.469 85.3271 123.468 85.3271C123.466 85.3271 123.465 85.3271 123.464 85.3271C123.462 85.3271 123.461 85.3271 123.459 85.3271C123.458 85.3271 123.456 85.3271 123.455 85.3271C123.454 85.3271 123.452 85.3271 123.451 85.3271C123.449 85.3271 123.448 85.3271 123.446 85.3271C123.445 85.3271 123.444 85.3271 123.442 85.3271C123.441 85.3271 123.439 85.3271 123.438 85.3271C123.436 85.3271 123.435 85.3271 123.433 85.3271C123.432 85.3271 123.43 85.3271 123.429 85.3271C123.428 85.3271 123.426 85.3271 123.425 85.3271C123.423 85.3271 123.422 85.3271 123.42 85.3271C123.419 85.3271 123.417 85.3271 123.416 85.3271C123.414 85.3271 123.413 85.3271 123.411 85.3271C123.41 85.3271 123.408 85.3271 123.407 85.3271C123.405 85.3271 123.404 85.3271 123.402 85.3271C123.401 85.3271 123.399 85.3271 123.398 85.3271C123.396 85.3271 123.395 85.3271 123.393 85.3271C123.392 85.3271 123.39 85.3271 123.389 85.3271C123.387 85.3271 123.386 85.3271 123.384 85.3271C123.383 85.3271 123.381 85.3271 123.38 85.3271C123.378 85.3271 123.377 85.3271 123.375 85.3271C123.374 85.3271 123.372 85.3271 123.371 85.3271C123.369 85.3271 123.368 85.3271 123.366 85.3271C123.365 85.3271 123.363 85.3271 123.362 85.3271C123.36 85.3271 123.359 85.3271 123.357 85.3271C123.356 85.3271 123.354 85.3271 123.353 85.3271C123.351 85.3271 123.349 85.3271 123.348 85.3271C123.346 85.3271 123.345 85.3271 123.343 85.3271C123.342 85.3271 123.34 85.3271 123.339 85.3271C123.337 85.3271 123.336 85.3271 123.334 85.3271C123.332 85.3271 123.331 85.3271 123.329 85.3271C123.328 85.3271 123.326 85.3271 123.325 85.3271C123.323 85.3271 123.322 85.3271 123.32 85.3271C123.318 85.3271 123.317 85.3271 123.315 85.3271C123.314 85.3271 123.312 85.3271 123.311 85.3271C123.309 85.3271 123.307 85.3271 123.306 85.3271C123.304 85.3271 123.303 85.3271 123.301 85.3271C123.3 85.3271 123.298 85.3271 123.296 85.3271C123.295 85.3271 123.293 85.3271 123.292 85.3271C123.29 85.3271 123.288 85.3271 123.287 85.3271C123.285 85.3271 123.284 85.3271 123.282 85.3271C123.28 85.3271 123.279 85.3271 123.277 85.3271C123.276 85.3271 123.274 85.3271 123.272 85.3271C123.271 85.3271 123.269 85.3271 123.268 85.3271C123.266 85.3271 123.264 85.3271 123.263 85.3271C123.261 85.3271 123.26 85.3271 123.258 85.3271C123.256 85.3271 123.255 85.3271 123.253 85.3271C123.252 85.3271 123.25 85.3271 123.248 85.3271C123.247 85.3271 123.245 85.3271 123.243 85.3271C123.242 85.3271 123.24 85.3271 123.239 85.3271C123.237 85.3271 123.235 85.3271 123.234 85.3271C123.232 85.3271 123.23 85.3271 123.229 85.3271C123.227 85.3271 123.225 85.3271 123.224 85.3271C123.222 85.3271 123.221 85.3271 123.219 85.3271C123.217 85.3271 123.216 85.3271 123.214 85.3271C123.212 85.3271 123.211 85.3271 123.209 85.3271C123.207 85.3271 123.206 85.3271 123.204 85.3271C123.202 85.3271 123.201 85.3271 123.199 85.3271C123.197 85.3271 123.196 85.3271 123.194 85.3271C123.192 85.3271 123.191 85.3271 123.189 85.3271C123.187 85.3271 123.186 85.3271 123.184 85.3271C123.182 85.3271 123.181 85.3271 123.179 85.3271C123.177 85.3271 123.176 85.3271 123.174 85.3271C123.172 85.3271 123.171 85.3271 123.169 85.3271C123.167 85.3271 123.166 85.3271 123.164 85.3271C123.162 85.3271 123.161 85.3271 123.159 85.3271C123.157 85.3271 123.156 85.3271 123.154 85.3271C123.152 85.3271 123.15 85.3271 123.149 85.3271C123.147 85.3271 123.145 85.3271 123.144 85.3271C123.142 85.3271 123.14 85.3271 123.139 85.3271C123.137 85.3271 123.135 85.3271 123.134 85.3271C123.132 85.3271 123.13 85.3271 123.128 85.3271C123.127 85.3271 123.125 85.3271 123.123 85.3271C123.122 85.3271 123.12 85.3271 123.118 85.3271C123.116 85.3271 123.115 85.3271 123.113 85.3271C123.111 85.3271 123.11 85.3271 123.108 85.3271C123.106 85.3271 123.104 85.3271 123.103 85.3271C123.101 85.3271 123.099 85.3271 123.097 85.3271C123.096 85.3271 123.094 85.3271 123.092 85.3271C123.091 85.3271 123.089 85.3271 123.087 85.3271C123.085 85.3271 123.084 85.3271 123.082 85.3271C123.08 85.3271 123.078 85.3271 123.077 85.3271C123.075 85.3271 123.073 85.3271 123.071 85.3271C123.07 85.3271 123.068 85.3271 123.066 85.3271C123.065 85.3271 123.063 85.3271 123.061 85.3271C123.059 85.3271 123.058 85.3271 123.056 85.3271C123.054 85.3271 123.052 85.3271 123.051 85.3271C123.049 85.3271 123.047 85.3271 123.045 85.3271C123.043 85.3271 123.042 85.3271 123.04 85.3271C123.038 85.3271 123.036 85.3271 123.035 85.3271C123.033 85.3271 123.031 85.3271 123.029 85.3271C123.028 85.3271 123.026 85.3271 123.024 85.3271C123.022 85.3271 123.021 85.3271 123.019 85.3271C123.017 85.3271 123.015 85.3271 123.013 85.3271C123.012 85.3271 123.01 85.3271 123.008 85.3271C123.006 85.3271 123.005 85.3271 123.003 85.3271C123.001 85.3271 122.999 85.3271 122.997 85.3271C122.996 85.3271 122.994 85.3271 122.992 85.3271C122.99 85.3271 122.989 85.3271 122.987 85.3271C122.985 85.3271 122.983 85.3271 122.981 85.3271C122.98 85.3271 122.978 85.3271 122.976 85.3271C122.974 85.3271 122.972 85.3271 122.971 85.3271C122.969 85.3271 122.967 85.3271 122.965 85.3271C122.963 85.3271 122.962 85.3271 122.96 85.3271C122.958 85.3271 122.956 85.3271 122.954 85.3271C122.953 85.3271 122.951 85.3271 122.949 85.3271C122.947 85.3271 122.945 85.3271 122.944 85.3271C122.942 85.3271 122.94 85.3271 122.938 85.3271C122.936 85.3271 122.934 85.3271 122.933 85.3271C122.931 85.3271 122.929 85.3271 122.927 85.3271C122.925 85.3271 122.924 85.3271 122.922 85.3271C122.92 85.3271 122.918 85.3271 122.916 85.3271C122.914 85.3271 122.913 85.3271 122.911 85.3271C122.909 85.3271 122.907 85.3271 122.905 85.3271C122.904 85.3271 122.902 85.3271 122.9 85.3271C122.898 85.3271 122.896 85.3271 122.894 85.3271C122.893 85.3271 122.891 85.3271 122.889 85.3271C122.887 85.3271 122.885 85.3271 122.883 85.3271C122.882 85.3271 122.88 85.3271 122.878 85.3271C122.876 85.3271 122.874 85.3271 122.872 85.3271C122.87 85.3271 122.869 85.3271 122.867 85.3271C122.865 85.3271 122.863 85.3271 122.861 85.3271C122.859 85.3271 122.858 85.3271 122.856 85.3271C122.854 85.3271 122.852 85.3271 122.85 85.3271C122.848 85.3271 122.846 85.3271 122.845 85.3271C122.843 85.3271 122.841 85.3271 122.839 85.3271C122.837 85.3271 122.835 85.3271 122.833 85.3271C122.832 85.3271 122.83 85.3271 122.828 85.3271C122.826 85.3271 122.824 85.3271 122.822 85.3271C122.82 85.3271 122.819 85.3271 122.817 85.3271C122.815 85.3271 122.813 85.3271 122.811 85.3271C122.809 85.3271 122.807 85.3271 122.806 85.3271C122.804 85.3271 122.802 85.3271 122.8 85.3271C122.798 85.3271 122.796 85.3271 122.794 85.3271C122.792 85.3271 122.791 85.3271 122.789 85.3271C122.787 85.3271 122.785 85.3271 122.783 85.3271C122.781 85.3271 122.779 85.3271 122.777 85.3271C122.776 85.3271 122.774 85.3271 122.772 85.3271C122.77 85.3271 122.768 85.3271 122.766 85.3271C122.764 85.3271 122.762 85.3271 122.76 85.3271C122.759 85.3271 122.757 85.3271 122.755 85.3271C122.753 85.3271 122.751 85.3271 122.749 85.3271C122.747 85.3271 122.745 85.3271 122.743 85.3271C122.742 85.3271 122.74 85.3271 122.738 85.3271C122.736 85.3271 122.734 85.3271 122.732 85.3271C122.73 85.3271 122.728 85.3271 122.726 85.3271C122.724 85.3271 122.723 85.3271 122.721 85.3271C122.719 85.3271 122.717 85.3271 122.715 85.3271C122.713 85.3271 122.711 85.3271 122.709 85.3271C122.707 85.3271 122.705 85.3271 122.704 85.3271C122.702 85.3271 122.7 85.3271 122.698 85.3271C122.696 85.3271 122.694 85.3271 122.692 85.3271C122.69 85.3271 122.688 85.3271 122.686 85.3271C122.685 85.3271 122.683 85.3271 122.681 85.3271C122.679 85.3271 122.677 85.3271 122.675 85.3271C122.673 85.3271 122.671 85.3271 122.669 85.3271C122.667 85.3271 122.665 85.3271 122.663 85.3271C122.662 85.3271 122.66 85.3271 122.658 85.3271C122.656 85.3271 122.654 85.3271 122.652 85.3271C122.65 85.3271 122.648 85.3271 122.646 85.3271C122.644 85.3271 122.642 85.3271 122.64 85.3271C122.638 85.3271 122.637 85.3271 122.635 85.3271C122.633 85.3271 122.631 85.3271 122.629 85.3271C122.627 85.3271 122.625 85.3271 122.623 85.3271C122.621 85.3271 122.619 85.3271 122.617 85.3271C122.615 85.3271 122.613 85.3271 122.612 85.3271C122.61 85.3271 122.608 85.3271 122.606 85.3271C122.604 85.3271 122.602 85.3271 122.6 85.3271C122.598 85.3271 122.596 85.3271 122.594 85.3271C122.592 85.3271 122.59 85.3271 122.588 85.3271C122.586 85.3271 122.584 85.3271 122.582 85.3271C122.581 85.3271 122.579 85.3271 122.577 85.3271C122.575 85.3271 122.573 85.3271 122.571 85.3271C122.569 85.3271 122.567 85.3271 122.565 85.3271C122.563 85.3271 122.561 85.3271 122.559 85.3271C122.557 85.3271 122.555 85.3271 122.553 85.3271C122.551 85.3271 122.549 85.3271 122.548 85.3271C122.546 85.3271 122.544 85.3271 122.542 85.3271C122.54 85.3271 122.538 85.3271 122.536 85.3271C122.534 85.3271 122.532 85.3271 122.53 85.3271C122.528 85.3271 122.526 85.3271 122.524 85.3271C122.522 85.3271 122.52 85.3271 122.518 85.3271C122.516 85.3271 122.514 85.3271 122.512 85.3271C122.511 85.3271 122.509 85.3271 122.507 85.3271C122.505 85.3271 122.503 85.3271 122.501 85.3271C122.499 85.3271 122.497 85.3271 122.495 85.3271C122.493 85.3271 122.491 85.3271 122.489 85.3271C122.487 85.3271 122.485 85.3271 122.483 85.3271C122.481 85.3271 122.479 85.3271 122.477 85.3271C122.475 85.3271 122.473 85.3271 122.471 85.3271C122.469 85.3271 122.467 85.3271 122.465 85.3271C122.464 85.3271 122.462 85.3271 122.46 85.3271C122.458 85.3271 122.456 85.3271 122.454 85.3271C122.452 85.3271 122.45 85.3271 122.448 85.3271C122.446 85.3271 122.444 85.3271 122.442 85.3271C122.44 85.3271 122.438 85.3271 122.436 85.3271C122.434 85.3271 122.432 85.3271 122.43 85.3271C122.428 85.3271 122.426 85.3271 122.424 85.3271C122.422 85.3271 122.42 85.3271 122.418 85.3271C122.416 85.3271 122.414 85.3271 122.412 85.3271C122.41 85.3271 122.408 85.3271 122.406 85.3271C122.405 85.3271 122.403 85.3271 122.401 85.3271C122.399 85.3271 122.397 85.3271 122.395 85.3271C122.393 85.3271 122.391 85.3271 122.389 85.3271C122.387 85.3271 122.385 85.3271 122.383 85.3271C122.381 85.3271 122.379 85.3271 122.377 85.3271C122.375 85.3271 122.373 85.3271 122.371 85.3271C122.369 85.3271 122.367 85.3271 122.365 85.3271C122.363 85.3271 122.361 85.3271 122.359 85.3271C122.357 85.3271 122.355 85.3271 122.353 85.3271C122.351 85.3271 122.349 85.3271 122.347 85.3271C122.345 85.3271 122.343 85.3271 122.341 85.3271C122.339 85.3271 122.337 85.3271 122.335 85.3271C122.333 85.3271 122.331 85.3271 122.329 85.3271C122.327 85.3271 122.326 85.3271 122.324 85.3271C122.322 85.3271 122.32 85.3271 122.318 85.3271C122.316 85.3271 122.314 85.3271 122.312 85.3271C122.31 85.3271 122.308 85.3271 122.306 85.3271C122.304 85.3271 122.302 85.3271 122.3 85.3271C122.298 85.3271 122.296 85.3271 122.294 85.3271C122.292 85.3271 122.29 85.3271 122.288 85.3271C122.286 85.3271 122.284 85.3271 122.282 85.3271C122.28 85.3271 122.278 85.3271 122.276 85.3271C122.274 85.3271 122.272 85.3271 122.27 85.3271C122.268 85.3271 122.266 85.3271 122.264 85.3271C122.262 85.3271 122.26 85.3271 122.258 85.3271C122.256 85.3271 122.254 85.3271 122.252 85.3271C122.25 85.3271 122.248 85.3271 122.246 85.3271C122.244 85.3271 122.242 85.3271 122.24 85.3271C122.238 85.3271 122.236 85.3271 122.234 85.3271C122.232 85.3271 122.23 85.3271 122.228 85.3271C122.226 85.3271 122.224 85.3271 122.222 85.3271C122.22 85.3271 122.218 85.3271 122.216 85.3271C122.214 85.3271 122.212 85.3271 122.21 85.3271C122.208 85.3271 122.206 85.3271 122.205 85.3271C122.203 85.3271 122.201 85.3271 122.199 85.3271C122.197 85.3271 122.195 85.3271 122.193 85.3271C122.191 85.3271 122.189 85.3271 122.187 85.3271C122.185 85.3271 122.183 85.3271 122.181 85.3271C122.179 85.3271 122.177 85.3271 122.175 85.3271C122.173 85.3271 122.171 85.3271 122.169 85.3271C122.167 85.3271 122.165 85.3271 122.163 85.3271C122.161 85.3271 122.159 85.3271 122.157 85.3271C122.155 85.3271 122.153 85.3271 122.151 85.3271C122.149 85.3271 122.147 85.3271 122.145 85.3271C122.143 85.3271 122.141 85.3271 122.139 85.3271C122.137 85.3271 122.135 85.3271 122.133 85.3271C122.131 85.3271 122.129 85.3271 122.127 85.3271C122.125 85.3271 122.123 85.3271 122.121 85.3271C122.119 85.3271 122.117 85.3271 122.115 85.3271C122.113 85.3271 122.111 85.3271 122.109 85.3271C122.107 85.3271 122.105 85.3271 122.103 85.3271C122.101 85.3271 122.099 85.3271 122.097 85.3271C122.095 85.3271 122.093 85.3271 122.091 85.3271C122.089 85.3271 122.087 85.3271 122.085 85.3271C122.083 85.3271 122.081 85.3271 122.079 85.3271C122.077 85.3271 122.075 85.3271 122.073 85.3271C122.071 85.3271 122.069 85.3271 122.067 85.3271C122.065 85.3271 122.063 85.3271 122.061 85.3271C122.06 85.3271 122.058 85.3271 122.056 85.3271C122.054 85.3271 122.052 85.3271 122.05 85.3271C122.048 85.3271 122.046 85.3271 122.044 85.3271C122.042 85.3271 122.04 85.3271 122.038 85.3271C122.036 85.3271 122.034 85.3271 122.032 85.3271C122.03 85.3271 122.028 85.3271 122.026 85.3271C122.024 85.3271 122.022 85.3271 122.02 85.3271C122.018 85.3271 122.016 85.3271 122.014 85.3271C122.012 85.3271 122.01 85.3271 122.008 85.3271C122.006 85.3271 122.004 85.3271 122.002 85.3271C122 85.3271 121.998 85.3271 121.996 85.3271C121.994 85.3271 121.992 85.3271 121.99 85.3271C121.988 85.3271 121.986 85.3271 121.984 85.3271C121.982 85.3271 121.98 85.3271 121.978 85.3271C121.976 85.3271 121.974 85.3271 121.972 85.3271C121.97 85.3271 121.968 85.3271 121.966 85.3271C121.964 85.3271 121.962 85.3271 121.96 85.3271C121.959 85.3271 121.957 85.3271 121.955 85.3271C121.953 85.3271 121.951 85.3271 121.949 85.3271C121.947 85.3271 121.945 85.3271 121.943 85.3271C121.941 85.3271 121.939 85.3271 121.937 85.3271C121.935 85.3271 121.933 85.3271 121.931 85.3271C121.929 85.3271 121.927 85.3271 121.925 85.3271C121.923 85.3271 121.921 85.3271 121.919 85.3271C121.917 85.3271 121.915 85.3271 121.913 85.3271C121.911 85.3271 121.909 85.3271 121.907 85.3271C121.905 85.3271 121.903 85.3271 121.901 85.3271C121.899 85.3271 121.897 85.3271 121.895 85.3271C121.893 85.3271 121.891 85.3271 121.89 85.3271C121.888 85.3271 121.886 85.3271 121.884 85.3271C121.882 85.3271 121.88 85.3271 121.878 85.3271C121.876 85.3271 121.874 85.3271 121.872 85.3271C121.87 85.3271 121.868 85.3271 121.866 85.3271C121.864 85.3271 121.862 85.3271 121.86 85.3271C121.858 85.3271 121.856 85.3271 121.854 85.3271C121.852 85.3271 121.85 85.3271 121.848 85.3271C121.846 85.3271 121.844 85.3271 121.842 85.3271C121.84 85.3271 121.838 85.3271 121.837 85.3271C121.835 85.3271 121.833 85.3271 121.831 85.3271C121.829 85.3271 121.827 85.3271 121.825 85.3271C121.823 85.3271 121.821 85.3271 121.819 85.3271C121.817 85.3271 121.815 85.3271 121.813 85.3271C121.811 85.3271 121.809 85.3271 121.807 85.3271C121.805 85.3271 121.803 85.3271 121.801 85.3271C121.799 85.3271 121.797 85.3271 121.795 85.3271C121.794 85.3271 121.792 85.3271 121.79 85.3271C121.788 85.3271 121.786 85.3271 121.784 85.3271C121.782 85.3271 121.78 85.3271 121.778 85.3271C121.776 85.3271 121.774 85.3271 121.772 85.3271C121.77 85.3271 121.768 85.3271 121.766 85.3271C121.764 85.3271 121.762 85.3271 121.76 85.3271C121.758 85.3271 121.757 85.3271 121.755 85.3271C121.753 85.3271 121.751 85.3271 121.749 85.3271C121.747 85.3271 121.745 85.3271 121.743 85.3271C121.741 85.3271 121.739 85.3271 121.737 85.3271C121.735 85.3271 121.733 85.3271 121.731 85.3271C121.729 85.3271 121.727 85.3271 121.726 85.3271C121.724 85.3271 121.722 85.3271 121.72 85.3271C121.718 85.3271 121.716 85.3271 121.714 85.3271C121.712 85.3271 121.71 85.3271 121.708 85.3271C121.706 85.3271 121.704 85.3271 121.702 85.3271C121.7 85.3271 121.699 85.3271 121.697 85.3271C121.695 85.3271 121.693 85.3271 121.691 85.3271C121.689 85.3271 121.687 85.3271 121.685 85.3271C121.683 85.3271 121.681 85.3271 121.679 85.3271C121.677 85.3271 121.675 85.3271 121.673 85.3271C121.672 85.3271 121.67 85.3271 121.668 85.3271C121.666 85.3271 121.664 85.3271 121.662 85.3271C121.66 85.3271 121.658 85.3271 121.656 85.3271C121.654 85.3271 121.652 85.3271 121.65 85.3271C121.649 85.3271 121.647 85.3271 121.645 85.3271C121.643 85.3271 121.641 85.3271 121.639 85.3271C121.637 85.3271 121.635 85.3271 121.633 85.3271C121.631 85.3271 121.629 85.3271 121.628 85.3271C121.626 85.3271 121.624 85.3271 121.622 85.3271C121.62 85.3271 121.618 85.3271 121.616 85.3271C121.614 85.3271 121.612 85.3271 121.61 85.3271C121.609 85.3271 121.607 85.3271 121.605 85.3271C121.603 85.3271 121.601 85.3271 121.599 85.3271C121.597 85.3271 121.595 85.3271 121.593 85.3271C121.591 85.3271 121.59 85.3271 121.588 85.3271C121.586 85.3271 121.584 85.3271 121.582 85.3271C121.58 85.3271 121.578 85.3271 121.576 85.3271C121.574 85.3271 121.572 85.3271 121.571 85.3271C121.569 85.3271 121.567 85.3271 121.565 85.3271C121.563 85.3271 121.561 85.3271 121.559 85.3271C121.557 85.3271 121.555 85.3271 121.554 85.3271C121.552 85.3271 121.55 85.3271 121.548 85.3271C121.546 85.3271 121.544 85.3271 121.542 85.3271C121.54 85.3271 121.539 85.3271 121.537 85.3271C121.535 85.3271 121.533 85.3271 121.531 85.3271C121.529 85.3271 121.527 85.3271 121.525 85.3271C121.524 85.3271 121.522 85.3271 121.52 85.3271C121.518 85.3271 121.516 85.3271 121.514 85.3271C121.512 85.3271 121.51 85.3271 121.509 85.3271C121.507 85.3271 121.505 85.3271 121.503 85.3271C121.501 85.3271 121.499 85.3271 121.497 85.3271C121.496 85.3271 121.494 85.3271 121.492 85.3271C121.49 85.3271 121.488 85.3271 121.486 85.3271C121.484 85.3271 121.483 85.3271 121.481 85.3271C121.479 85.3271 121.477 85.3271 121.475 85.3271C121.473 85.3271 121.471 85.3271 121.47 85.3271C121.468 85.3271 121.466 85.3271 121.464 85.3271C121.462 85.3271 121.46 85.3271 121.458 85.3271C121.457 85.3271 121.455 85.3271 121.453 85.3271C121.451 85.3271 121.449 85.3271 121.447 85.3271C121.446 85.3271 121.444 85.3271 121.442 85.3271C121.44 85.3271 121.438 85.3271 121.436 85.3271C121.435 85.3271 121.433 85.3271 121.431 85.3271C121.429 85.3271 121.427 85.3271 121.425 85.3271C121.424 85.3271 121.422 85.3271 121.42 85.3271C121.418 85.3271 121.416 85.3271 121.414 85.3271C121.413 85.3271 121.411 85.3271 121.409 85.3271C121.407 85.3271 121.405 85.3271 121.403 85.3271C121.402 85.3271 121.4 85.3271 121.398 85.3271C121.396 85.3271 121.394 85.3271 121.393 85.3271C121.391 85.3271 121.389 85.3271 121.387 85.3271C121.385 85.3271 121.383 85.3271 121.382 85.3271C121.38 85.3271 121.378 85.3271 121.376 85.3271C121.374 85.3271 121.373 85.3271 121.371 85.3271C121.369 85.3271 121.367 85.3271 121.365 85.3271C121.364 85.3271 121.362 85.3271 121.36 85.3271C121.358 85.3271 121.356 85.3271 121.355 85.3271C121.353 85.3271 121.351 85.3271 121.349 85.3271C121.347 85.3271 121.346 85.3271 121.344 85.3271C121.342 85.3271 121.34 85.3271 121.338 85.3271C121.337 85.3271 121.335 85.3271 121.333 85.3271C121.331 85.3271 121.329 85.3271 121.328 85.3271C121.326 85.3271 121.324 85.3271 121.322 85.3271C121.321 85.3271 121.319 85.3271 121.317 85.3271C121.315 85.3271 121.313 85.3271 121.312 85.3271C121.31 85.3271 121.308 85.3271 121.306 85.3271C121.305 85.3271 121.303 85.3271 121.301 85.3271C121.299 85.3271 121.297 85.3271 121.296 85.3271C121.294 85.3271 121.292 85.3271 121.29 85.3271C121.289 85.3271 121.287 85.3271 121.285 85.3271C121.283 85.3271 121.282 85.3271 121.28 85.3271C121.278 85.3271 121.276 85.3271 121.275 85.3271C121.273 85.3271 121.271 85.3271 121.269 85.3271C121.268 85.3271 121.266 85.3271 121.264 85.3271C121.262 85.3271 121.261 85.3271 121.259 85.3271C121.257 85.3271 121.255 85.3271 121.254 85.3271C121.252 85.3271 121.25 85.3271 121.248 85.3271C121.247 85.3271 121.245 85.3271 121.243 85.3271C121.241 85.3271 121.24 85.3271 121.238 85.3271C121.236 85.3271 121.234 85.3271 121.233 85.3271C121.231 85.3271 121.229 85.3271 121.228 85.3271C121.226 85.3271 121.224 85.3271 121.222 85.3271C121.221 85.3271 121.219 85.3271 121.217 85.3271C121.215 85.3271 121.214 85.3271 121.212 85.3271C121.21 85.3271 121.209 85.3271 121.207 85.3271C121.205 85.3271 121.203 85.3271 121.202 85.3271C121.2 85.3271 121.198 85.3271 121.197 85.3271C121.195 85.3271 121.193 85.3271 121.191 85.3271C121.19 85.3271 121.188 85.3271 121.186 85.3271C121.185 85.3271 121.183 85.3271 121.181 85.3271C121.18 85.3271 121.178 85.3271 121.176 85.3271C121.174 85.3271 121.173 85.3271 121.171 85.3271C121.169 85.3271 121.168 85.3271 121.166 85.3271C121.164 85.3271 121.163 85.3271 121.161 85.3271C121.159 85.3271 121.158 85.3271 121.156 85.3271C121.154 85.3271 121.153 85.3271 121.151 85.3271C121.149 85.3271 121.148 85.3271 121.146 85.3271C121.144 85.3271 121.142 85.3271 121.141 85.3271C121.139 85.3271 121.137 85.3271 121.136 85.3271C121.134 85.3271 121.132 85.3271 121.131 85.3271C121.129 85.3271 121.127 85.3271 121.126 85.3271C121.124 85.3271 121.122 85.3271 121.121 85.3271C121.119 85.3271 121.118 85.3271 121.116 85.3271C121.114 85.3271 121.113 85.3271 121.111 85.3271C121.109 85.3271 121.108 85.3271 121.106 85.3271C121.104 85.3271 121.103 85.3271 121.101 85.3271C121.099 85.3271 121.098 85.3271 121.096 85.3271C121.094 85.3271 121.093 85.3271 121.091 85.3271C121.09 85.3271 121.088 85.3271 121.086 85.3271C121.085 85.3271 121.083 85.3271 121.081 85.3271C121.08 85.3271 121.078 85.3271 121.077 85.3271C121.075 85.3271 121.073 85.3271 121.072 85.3271C121.07 85.3271 121.068 85.3271 121.067 85.3271C121.065 85.3271 121.064 85.3271 121.062 85.3271C121.06 85.3271 121.059 85.3271 121.057 85.3271C121.055 85.3271 121.054 85.3271 121.052 85.3271C121.051 85.3271 121.049 85.3271 121.047 85.3271C121.046 85.3271 121.044 85.3271 121.043 85.3271C121.041 85.3271 121.039 85.3271 121.038 85.3271C121.036 85.3271 121.035 85.3271 121.033 85.3271C121.032 85.3271 121.03 85.3271 121.028 85.3271C121.027 85.3271 121.025 85.3271 121.024 85.3271C121.022 85.3271 121.02 85.3271 121.019 85.3271C121.017 85.3271 121.016 85.3271 121.014 85.3271C121.013 85.3271 121.011 85.3271 121.009 85.3271C121.008 85.3271 121.006 85.3271 121.005 85.3271C121.003 85.3271 121.002 85.3271 121 85.3271V86.3271Z" fill="#282828"/>
<circle cx="116.5" cy="82.3271" r="1.5" fill="#282828"/>
<circle cx="126.5" cy="82.3271" r="1.5" fill="#282828"/>
<path d="M121.5 88C122.5 88.5 124 89 126 87" stroke="#282828" stroke-linecap="round"/>
<path d="M1.5 175H243" stroke="#282828"/>
<path d="M172 135L196.5 123" stroke="#282828"/>
<path d="M168 127L169.5 137M175.5 136.5L122.5 143C121.833 143.167 120.3 143.3 119.5 142.5C118.7 141.7 111.5 135.167 108 132C106.5 131.5 103.1 131.2 101.5 134C99.9 136.8 105.167 142.167 108 144.5L98 146C96.3333 146.667 93.1 149 93.5 153C93.9 157 97 157.667 98.5 157.5C97.3333 158.167 95.2 160.3 96 163.5C96.8 166.7 100.667 166.833 102.5 166.5C99.6667 167.333 95 170.2 99 175" stroke="#282828"/>
<path d="M109 99C109.667 102.167 113.3 108.5 122.5 108.5C131.7 108.5 135.333 102.167 136 99" stroke="#282828"/>
<path d="M77 138.5V146M77 175.5V146M70.5 141.5L77 146" stroke="#282828"/>
<path d="M74 112L60 149" stroke="#282828"/>
<path d="M69 112.5C72.5 112.333 80.2 110.9 83 106.5C86.5 101 87.5 93.5 85.5 92.5C83.5 91.5 80.5 90.5 78 93.5" stroke="#282828"/>
<path d="M30.0001 176C25.8334 173.5 17.4001 166.5 17.0001 158.5C16.5001 148.5 29.0001 129.5 32.5001 120.5C36.0001 111.5 38.5 94.9999 37 88.9999C35.5 82.9999 32 69.9999 26.5 65.4999C21 60.9999 20.5 54.4999 25.5 51.9999C30.5 49.4999 36.5 54.4999 38 56.9999C38.4685 57.7807 39.7143 60.3144 41.2376 63.4999M48.5 78.9999C46.6712 75.0376 43.6161 68.474 41.2376 63.4999M41.2376 63.4999C40.4917 57.8333 38.8 45.9999 38 43.9999C37 41.4999 38 35.9999 42.5 35.9999C47 35.9999 52 40.9999 52.5 46.4999C52.7182 48.9002 53.1447 55.0799 53.5685 61.4999M53.5685 61.4999C53.9216 66.8486 54.2728 72.3641 54.5 75.9999L53.5685 61.4999ZM53.5685 61.4999C55.0457 59.9999 58 56.1999 58 52.9999C58 48.9999 58.5 35.4999 60 33.9999C61.5 32.4999 63.5 31.4999 66.5 31.9999C69.5 32.4999 74 35.9999 72.5 43.9999C71.784 47.8184 69.7272 54.912 67.6888 61.4999M64 72.9999C64.9412 70.1764 66.3108 65.9537 67.6888 61.4999M67.6888 61.4999C68.9592 61.4999 72.2 61.8999 75 63.4999C78.5 65.4999 88 70.9999 88.5 75.9999C89 80.9999 88 83.9999 84.5 84.4999C81 84.9999 76.5 79.9999 75 78.9999" stroke="#282828"/>
<circle cx="65" cy="87" r="16" fill="#BA2636"/>
<path d="M58 86L63.5 92.5L73 84" stroke="white" stroke-width="3" stroke-linecap="round"/>
</svg>
