<svg width="24" height="24" viewBox="0 0 24 24" fill="none" xmlns="http://www.w3.org/2000/svg">
<circle cx="17" cy="16" r="5" fill="#FBD612"/>
<path d="M13.8783 10.2655C13.2754 10.5133 12.7227 10.8437 12.2203 11.2566C11.7178 11.6696 11.2834 12.1416 10.9169 12.6726C10.5504 13.2035 10.2667 13.7847 10.0657 14.4159C9.86475 15.0472 9.76426 15.7109 9.76426 16.4071C9.76426 17.0206 9.84406 17.6077 10.0037 18.1681C10.1633 18.7286 10.3849 19.2566 10.6686 19.7522H10.1899C9.84702 19.7522 9.44803 19.7404 8.99288 19.7168C8.53773 19.6932 8.06781 19.6608 7.58311 19.6195C7.09841 19.5782 6.61666 19.531 6.13787 19.4779C5.65909 19.4248 5.22463 19.3687 4.8345 19.3097C4.44438 19.2507 4.11336 19.1917 3.84146 19.1327C3.56955 19.0737 3.39813 19.0147 3.3272 18.9558C3.19716 18.8614 3.09963 18.5693 3.03461 18.0796C2.96959 17.59 2.99619 16.9617 3.11441 16.1947C3.16169 15.8997 3.25923 15.6578 3.407 15.469C3.55477 15.2802 3.73506 15.118 3.94785 14.9823C4.16065 14.8466 4.39709 14.7375 4.65717 14.6549C4.91726 14.5723 5.18325 14.4926 5.45516 14.4159C5.72706 14.3392 5.9901 14.2566 6.24427 14.1681C6.49844 14.0796 6.73193 13.9705 6.94472 13.8407C7.19299 13.6873 7.38509 13.5369 7.52104 13.3894C7.657 13.2419 7.75453 13.0973 7.81364 12.9558C7.87275 12.8142 7.9023 12.6667 7.9023 12.5133C7.9023 12.3599 7.89639 12.1888 7.88457 12C7.86093 11.7286 7.76635 11.5133 7.60084 11.354C7.43534 11.1947 7.2521 11.0324 7.05112 10.8673C6.95655 10.7847 6.87084 10.6696 6.79399 10.5221C6.71715 10.3746 6.64917 10.2242 6.59006 10.0708C6.53095 9.89381 6.47185 9.71091 6.41274 9.52212C6.32998 9.49853 6.24723 9.45723 6.16447 9.39823C6.09354 9.33923 6.0167 9.25664 5.93395 9.15044C5.85119 9.04425 5.78026 8.89086 5.72115 8.69027C5.66204 8.48968 5.6384 8.30678 5.65022 8.14159C5.66204 7.9764 5.69751 7.82891 5.75662 7.69911C5.8039 7.56932 5.88075 7.44543 5.98714 7.32743C5.98714 6.87906 6.01079 6.43068 6.05808 5.9823C6.10536 5.60472 6.18812 5.19764 6.30634 4.76106C6.42456 4.32448 6.6078 3.9351 6.85606 3.59292C7.0925 3.26254 7.34667 2.9941 7.61858 2.78761C7.89048 2.58112 8.17421 2.41888 8.46976 2.30088C8.76531 2.18289 9.0579 2.10324 9.34754 2.06195C9.63718 2.02065 9.91795 2 10.1899 2C10.5327 2 10.8726 2.03835 11.2095 2.11504C11.5464 2.19174 11.8627 2.29499 12.1582 2.42478C12.4538 2.55457 12.7168 2.70206 12.9473 2.86726C13.1779 3.03245 13.3581 3.19764 13.4882 3.36283C13.7956 3.74041 14.0202 4.15634 14.162 4.61062C14.3039 5.0649 14.4044 5.49853 14.4635 5.9115C14.5226 6.38348 14.5522 6.86136 14.5522 7.34513C14.6349 7.40413 14.6999 7.48083 14.7472 7.57522C14.7945 7.65782 14.8329 7.76401 14.8625 7.89381C14.892 8.0236 14.895 8.18289 14.8714 8.37168C14.8477 8.63127 14.7975 8.83481 14.7206 8.9823C14.6438 9.12979 14.5581 9.24484 14.4635 9.32743C14.3571 9.42183 14.2448 9.48673 14.1266 9.52212C14.1029 9.59292 14.0793 9.66962 14.0556 9.75221L13.967 10C13.9433 10.0826 13.9138 10.1711 13.8783 10.2655ZM16.4141 10.8319C17.1825 10.8319 17.9066 10.9794 18.5864 11.2743C19.2662 11.5693 19.8573 11.9705 20.3597 12.4779C20.8621 12.9853 21.2611 13.5782 21.5567 14.2566C21.8522 14.9351 22 15.6578 22 16.4248C22 17.1917 21.8522 17.9145 21.5567 18.5929C21.2611 19.2714 20.8621 19.8643 20.3597 20.3717C19.8573 20.8791 19.2662 21.2773 18.5864 21.5664C17.9066 21.8555 17.1825 22 16.4141 22C15.6339 22 14.9039 21.8555 14.2241 21.5664C13.5443 21.2773 12.9532 20.8791 12.4508 20.3717C11.9484 19.8643 11.5494 19.2714 11.2538 18.5929C10.9583 17.9145 10.8105 17.1917 10.8105 16.4248C10.8105 15.6578 10.9583 14.9351 11.2538 14.2566C11.5494 13.5782 11.9484 12.9853 12.4508 12.4779C12.9532 11.9705 13.5443 11.5693 14.2241 11.2743C14.9039 10.9794 15.6339 10.8319 16.4141 10.8319ZM19.677 15.3274C19.7479 15.0914 19.7154 14.8761 19.5795 14.6814C19.4435 14.4867 19.2632 14.3481 19.0386 14.2655C18.814 14.1829 18.5894 14.177 18.3647 14.2478C18.1401 14.3186 17.9746 14.5015 17.8682 14.7965C17.8091 14.9971 17.753 15.1829 17.6998 15.354C17.6466 15.5251 17.5934 15.705 17.5402 15.8938C17.487 16.0826 17.4219 16.2861 17.3451 16.5044C17.2683 16.7227 17.1707 16.9735 17.0525 17.2566C16.9343 17.5634 16.7658 17.708 16.5471 17.6903C16.3284 17.6726 16.1599 17.5457 16.0417 17.3097C15.9117 17.0737 15.7905 16.8201 15.6782 16.5487C15.5659 16.2773 15.4565 16.0118 15.3501 15.7522C15.2437 15.4926 15.1492 15.2566 15.0664 15.0442C14.9837 14.8319 14.9127 14.6608 14.8536 14.531C14.759 14.3422 14.6024 14.236 14.3837 14.2124C14.165 14.1888 13.9522 14.2212 13.7453 14.3097C13.5384 14.3982 13.367 14.5369 13.2311 14.7257C13.0951 14.9145 13.0744 15.1209 13.169 15.3451C13.2517 15.5811 13.3463 15.8466 13.4527 16.1416C13.5591 16.4366 13.6714 16.7375 13.7896 17.0442C13.9079 17.351 14.0202 17.6519 14.1266 17.9469C14.233 18.2419 14.3275 18.4956 14.4103 18.708C14.5876 19.1563 14.8566 19.4926 15.2171 19.7168C15.5777 19.941 15.956 20.059 16.3521 20.0708C16.7481 20.0826 17.1264 19.9941 17.487 19.8053C17.8475 19.6165 18.1106 19.3333 18.2761 18.9558C18.4061 18.649 18.5391 18.3274 18.6751 17.9911C18.811 17.6549 18.9411 17.3274 19.0652 17.0089C19.1893 16.6903 19.3046 16.3835 19.411 16.0885C19.5174 15.7935 19.6061 15.5398 19.677 15.3274Z" fill="#282828"/>
</svg>
