<svg width="24" height="24" viewBox="0 0 24 24" fill="none" xmlns="http://www.w3.org/2000/svg">
<path d="M15.7498 21.0015H18.3759C19.0724 21.0015 19.7403 20.7249 20.2328 20.2324C20.7253 19.7399 21.002 19.0719 21.002 18.3755V15.7494" stroke="#BA2636" stroke-width="2" stroke-linecap="round" stroke-linejoin="round"/>
<path d="M21.002 8.25153V5.62546C21.002 4.92898 20.7253 4.26103 20.2328 3.76855C19.7403 3.27606 19.0724 2.99939 18.3759 2.99939H15.7498" stroke="#BA2636" stroke-width="2" stroke-linecap="round" stroke-linejoin="round"/>
<path d="M8.25318 21.0015H5.62711C4.93063 21.0015 4.26268 20.7249 3.7702 20.2324C3.27771 19.7399 3.00104 19.0719 3.00104 18.3755V15.7494" stroke="#BA2636" stroke-width="2" stroke-linecap="round" stroke-linejoin="round"/>
<path d="M3.00104 8.25153V5.62546C3.00104 4.92898 3.27771 4.26103 3.7702 3.76855C4.26268 3.27606 4.93063 2.99939 5.62711 2.99939H8.25318" stroke="#BA2636" stroke-width="2" stroke-linecap="round" stroke-linejoin="round"/>
<line x1="3.36841" y1="11.5" x2="21.0526" y2="11.5" stroke="#BA2636" stroke-width="2"/>
</svg>
