<svg width="242" height="179" viewBox="0 0 242 179" fill="none" xmlns="http://www.w3.org/2000/svg">
<path d="M0.25 178H241.75" stroke="#282828"/>
<path fill-rule="evenodd" clip-rule="evenodd" d="M44.75 81.0231V176.043C44.75 177.148 45.6454 178.043 46.75 178.043H58.5358C57.1676 178.043 56.2033 176.7 56.6409 175.403L82.2908 99.4035C82.5653 98.5904 83.3277 98.043 84.1858 98.043H116.733L118.166 92.0048C118.464 90.7484 117.511 89.543 116.22 89.543H103.768C103.129 89.543 102.527 89.2368 102.151 88.7194L95.3564 79.3769C94.9759 78.8537 94.3659 78.5469 93.719 78.5533L46.73 79.0232C45.6333 79.0342 44.75 79.9263 44.75 81.0231ZM168.75 98.043H177.25C176.75 97.8763 175.55 97.043 174.75 95.043C173.95 93.043 176.083 89.8763 177.25 88.543H168.75V98.043Z" fill="#BA2636"/>
<path d="M213.25 98.0431H216.948C218.321 98.0431 219.285 99.3948 218.839 100.693L192.714 176.693C192.436 177.501 191.677 178.043 190.823 178.043H58.5358C57.1676 178.043 56.2033 176.7 56.6409 175.404L82.2909 99.4035C82.5653 98.5905 83.3277 98.0431 84.1858 98.0431H185.75" stroke="#282828"/>
<path d="M110.25 46.0431C111.718 48.5076 113.51 52.302 115.102 57.0431M117.25 97.5431C118.748 91.5501 119.278 85.6382 119.16 80.0431M152.25 46.0431C155.43 47.9275 161.207 55.4884 165.31 72.0431M169.25 97.5431C168.429 87.3354 167.014 78.9145 165.31 72.0431M119.16 80.0431C123.835 79.6503 130.669 78.949 137.75 77.9998M119.16 80.0431C119.027 73.6857 118.058 67.7372 116.726 62.5431M165.31 72.0431C161.008 74.1035 152.052 75.8986 142.75 77.2917M142.75 77.2917C141.086 77.5408 139.411 77.7772 137.75 77.9998M142.75 77.2917V95.0431M142.75 97.5431V95.0431M137.75 77.9998C137.917 81.5142 138.55 89.1431 139.75 91.5431C140.95 93.9431 142.25 94.8764 142.75 95.0431M151.25 45.0431C158.417 45.7097 174.45 54.7431 181.25 85.5431M176.25 97.5431C175.583 94.5431 175.85 88.1431 182.25 86.5431C188.65 84.9431 198.25 83.8764 202.25 83.5431M202.25 83.5431C203.75 83.5431 207.25 84.2431 209.25 87.0431C211.113 89.6506 211.963 95.0622 212.206 97.9475C212.239 98.3366 212.152 98.7269 211.931 99.049C211.126 100.224 209.638 101.737 208.25 101.043C206.65 100.243 206.25 99.0431 206.25 98.5431M202.25 83.5431C201.25 77.0431 198.15 62.1431 193.75 54.5431C190.591 49.0859 184.296 40.9889 175.72 34.0431M205.75 91.0431C206.083 94.0431 206.55 100.343 205.75 101.543C204.75 103.043 201.25 105.043 200.25 102.543M199.75 91.0431C199.917 94.5431 199.95 101.943 198.75 103.543C197.25 105.543 194.25 105.043 193.75 103.043M193.75 92.0431C193.917 95.5431 193.75 102.843 191.75 104.043C189.25 105.543 185.75 104.043 185.75 101.543C185.75 99.0431 188.75 96.5431 188.25 95.0431C187.75 93.5431 187.25 91.5431 184.25 91.0431C181.85 90.6431 180.583 90.5431 180.25 90.5431M131.25 18.5431C131.917 17.8764 137.25 17.6431 153.25 22.0431C161.761 24.3836 169.367 28.8975 175.72 34.0431M164.25 47.5431C166.23 43.3764 171.297 34.8431 175.72 34.0431M135.75 19.5431C136.083 21.3764 135.05 25.6431 128.25 28.0431C122.496 30.0738 118.008 27.4749 115.753 25.2136C115.111 24.5697 114.156 24.2631 113.333 24.651C109.506 26.4562 103.363 30.5568 101.25 36.5431C98.25 45.0431 97.25 57.5431 92.75 59.0431C88.25 60.5431 58.6343 68.4845 55.25 71.0431C52 73.5001 50.3333 77.6812 49.5 79.0001M57.75 77.2917C55.75 79.7088 52.35 84.9431 54.75 86.5431C56.9876 88.0348 62.0069 83.5576 64.702 80.6487C65.0583 80.2641 65.543 80.0221 66.066 79.9848L72.0756 79.5555C72.1917 79.5473 72.306 79.5294 72.4185 79.4997C73.8031 79.1344 76.3662 78.2501 76.75 77.2917M96.75 79.5431C102.597 78.5431 114.779 73.7431 116.726 62.5431M116.726 62.5431C116.227 60.5979 115.678 58.7585 115.102 57.0431M115.102 57.0431C111.651 56.2097 104.05 54.5431 101.25 54.5431M114.25 18.5431C114.768 19.4243 115.574 20.5216 116.594 21.5431M131.25 14.5431C131.583 16.7098 130.95 21.6431 125.75 24.0431C122.167 25.6966 118.854 23.8058 116.594 21.5431M132.25 10.5431C133.083 11.5431 134.15 14.0431 131.75 16.0431M112.25 19.5431C112.313 20.7098 113.269 22.7431 116.594 21.5431" stroke="#282828"/>
<path d="M109.75 15.0431C107.75 9.44305 112.583 3.70972 115.25 1.54305C114.917 1.20972 115.45 0.443051 120.25 0.0430513C126.25 -0.456949 128.75 3.54305 130.25 4.54305C131.75 5.54305 133.25 13.0431 131.25 14.0431C129.65 14.8431 125.917 14.3764 124.25 14.0431V18.5431C120.25 19.7097 111.75 20.6431 109.75 15.0431Z" fill="#282828"/>
<path d="M114.25 24.5431L117.75 23.0431" stroke="#282828"/>
<circle cx="128.25" cy="17.5431" r="1" fill="#282828"/>
<circle cx="122.25" cy="20.5431" r="1" fill="#282828"/>
<path fill-rule="evenodd" clip-rule="evenodd" d="M4.25 13.0431H31.75C34.5114 13.0431 36.75 15.2817 36.75 18.0431C36.75 20.8045 34.5114 23.0431 31.75 23.0431H27.75H25.75V23.3845C23.4196 24.2082 21.75 26.4307 21.75 29.0431C21.75 32.3568 24.4363 35.0431 27.75 35.0431H55.25V34.0431H27.75C24.9886 34.0431 22.75 31.8045 22.75 29.0431C22.75 26.2817 24.9886 24.0431 27.75 24.0431H31.75H33.75V23.7017C36.0804 22.878 37.75 20.6555 37.75 18.0431C37.75 14.7294 35.0637 12.0431 31.75 12.0431H4.25V13.0431Z" fill="#BA2636"/>
</svg>
