<svg width="254" height="122" viewBox="0 0 254 122" fill="none" xmlns="http://www.w3.org/2000/svg">
<path d="M33.6694 107.117C34.4694 107.917 38.0027 116.117 39.6694 120.117H24.6694C21.6694 114.284 16.5694 102.217 20.1694 100.617C24.6694 98.6174 32.6694 106.117 33.6694 107.117Z" fill="#D9D9D9"/>
<path d="M31.6694 118.617C30.8361 115.951 28.5694 110.117 26.1694 108.117" stroke="white"/>
<path d="M220.448 106.359L214.431 119.78H219.431C220.265 118.947 222.131 116.28 222.931 112.28C223.531 109.283 222.67 107.221 221.781 106.096C221.397 105.61 220.701 105.794 220.448 106.359Z" fill="#D9D9D9"/>
<path d="M239.931 99.2799C235.131 99.2799 223.265 112.947 217.931 119.78H235.431C238.931 112.947 244.731 99.2799 239.931 99.2799Z" fill="#D9D9D9"/>
<path d="M224.931 119.78C226.931 116.447 231.431 109.48 233.431 108.28" stroke="white"/>
<path d="M121.931 55.2799L121.931 60.2799" stroke="#282828"/>
<path d="M129.931 56.2799L129.931 60.2799" stroke="#282828"/>
<path d="M112.431 61.7799C113.598 65.2799 118.131 72.2799 126.931 72.2799C135.731 72.2799 139.265 65.2799 139.931 61.7799" stroke="#282828"/>
<path d="M78.9312 107.28L71.9312 105.78M172.931 108.78L179.931 107.28M78.9312 95.2799L77.9312 120.28M170.931 95.2799L172.931 120.28" stroke="#282828"/>
<path d="M200.431 76.28H242.931C244.265 77.28 246.831 80.18 246.431 83.78C245.931 88.28 244.931 90.28 238.431 90.28C233.231 90.28 225.265 90.28 221.931 90.28M225.931 90.78L213.431 120.28" stroke="#282828"/>
<path d="M178.431 112.78C181.431 105.78 187.931 90.88 189.931 87.28C192.431 82.78 197.931 74.28 201.931 73.28C205.931 72.28 218.431 73.78 219.431 72.78C220.431 71.78 228.431 66.78 231.431 68.78C233.831 70.38 233.431 72.78 232.931 73.78H248.189C248.984 73.78 249.747 74.096 250.31 74.6586L251.93 76.2792C252.26 76.6085 252.513 77.0085 252.631 77.459C252.94 78.6345 253.258 80.4738 252.931 81.78C252.431 83.78 251.431 85.78 249.431 86.78C247.831 87.58 246.098 87.4466 245.431 87.28" stroke="#282828"/>
<path d="M217.931 74.28H232.931" stroke="#282828"/>
<path d="M53.5688 76.28H11.0688C9.73545 77.28 7.16879 80.18 7.56879 83.78C8.06879 88.28 9.06879 90.28 15.5688 90.28C20.7688 90.28 28.7355 90.28 32.0688 90.28M28.0688 90.78L40.5688 120.28" stroke="#282828"/>
<path d="M75.5688 112.78C72.5688 105.78 66.0688 90.88 64.0688 87.28C61.5688 82.78 56.0688 74.28 52.0688 73.28C48.0688 72.28 35.5688 73.78 34.5688 72.78C33.5688 71.78 25.5688 66.78 22.5688 68.78C20.1688 70.38 20.5688 72.78 21.0688 73.78H5.81143C5.01578 73.78 4.25272 74.096 3.69011 74.6586L2.06956 76.2792C1.74024 76.6085 1.48737 77.0085 1.36896 77.459C1.05992 78.6345 0.742247 80.4738 1.06879 81.78C1.56879 83.78 2.56879 85.78 4.56879 86.78C6.16879 87.58 7.90212 87.4466 8.56879 87.28" stroke="#282828"/>
<path d="M36.0688 74.28H21.0688" stroke="#282828"/>
<path d="M6.43121 121.28H247.931" stroke="#282828"/>
<path d="M114.931 41.7799C114.765 44.4466 114.931 50.2799 116.931 52.2799C119.431 54.7799 121.931 56.2799 126.431 56.2799C130.931 56.2799 133.931 54.2799 135.431 52.2799C136.931 50.2799 138.431 48.2799 138.431 45.2799C138.431 42.8799 138.431 39.9466 138.431 38.7799" stroke="#282828"/>
<path d="M119.431 25.7799C124.631 22.9799 129.598 23.2799 131.431 23.7799C132.931 24.0375 135.431 26.7799 135.931 28.2799C136.431 29.7799 136.931 31.2799 139.431 32.2799C141.431 33.0799 141.265 37.2799 140.931 39.2799C139.931 39.6133 137.931 40.1799 137.931 39.7799C137.931 39.2799 137.431 39.7799 136.431 39.7799C135.431 39.7799 133.431 42.2799 133.931 40.7799C134.431 39.2799 133.431 38.2799 132.931 38.2799C132.431 38.2799 126.431 42.2799 125.431 42.2799H114.931C113.431 42.2799 112.931 40.7799 111.931 38.2799C110.931 35.7799 112.931 29.2799 119.431 25.7799Z" fill="#282828"/>
<path d="M110.431 43.7799C110.431 42.1231 111.774 40.7799 113.431 40.7799H114.431V46.7799H113.431C111.774 46.7799 110.431 45.4368 110.431 43.7799Z" stroke="#282828"/>
<path d="M142.431 43.7799C142.431 42.1231 141.088 40.7799 139.431 40.7799H138.431V46.7799H139.431C141.088 46.7799 142.431 45.4368 142.431 43.7799Z" stroke="#282828"/>
<path d="M125.431 42.2799L123.431 48.2799C123.598 48.6132 124.131 49.2799 124.931 49.2799C125.731 49.2799 127.062 49.2799 127.627 49.2799" stroke="#282828"/>
<circle cx="120.431" cy="45.7799" r="1.5" fill="#282828"/>
<circle cx="130.431" cy="45.7799" r="1.5" fill="#282828"/>
<path fill-rule="evenodd" clip-rule="evenodd" d="M129.931 60.2343C134.157 60.0561 139.654 59.3831 145.262 58.6965C146.587 58.5343 147.918 58.3713 149.24 58.2139C153.177 57.7453 157.04 57.3249 160.446 57.1149C163.862 56.9043 166.781 56.9082 168.844 57.2723C170.408 57.5483 172.329 58.697 174.447 60.4739C176.55 62.2377 178.786 64.5685 180.977 67.1182C185.358 72.2167 189.519 78.1465 192.01 82.0489L192.853 81.5109C190.344 77.58 186.155 71.6098 181.735 66.4665C179.526 63.8955 177.25 61.52 175.09 59.7078C172.946 57.9086 170.854 56.6115 169.018 56.2875C166.831 55.9016 163.813 55.9055 160.385 56.1168C156.948 56.3287 153.061 56.752 149.122 57.2209C147.787 57.3798 146.447 57.5439 145.116 57.7067C139.52 58.3916 134.094 59.0557 129.931 59.2336V60.2343ZM121.931 60.0893V59.0876C118.555 58.8867 115.024 58.5469 111.169 58.1574C110.58 58.0979 109.983 58.0372 109.378 57.9757L109.377 57.9757C103.634 57.3918 97.1617 56.7338 89.4606 56.2808C82.4429 55.868 75.8925 60.0781 70.6024 65.3766C65.2984 70.689 61.1692 77.1859 58.984 81.5563L59.8784 82.0035C62.0266 77.7072 66.0973 71.3041 71.3101 66.0832C76.5366 60.8484 82.8195 56.8918 89.4019 57.279C97.0807 57.7307 103.533 58.3867 109.277 58.9706L109.277 58.9706C109.882 59.0321 110.479 59.0928 111.068 59.1524C114.944 59.5438 118.51 59.8873 121.931 60.0893Z" fill="#282828"/>
<path d="M184.016 40.2799C185.849 41.1132 189.616 42.6799 190.016 42.2799C190.516 41.7799 189.516 36.2799 190.016 35.7799C190.516 35.2799 195.516 38.2799 196.516 37.7799C197.516 37.2799 195.516 31.7799 196.516 31.2799C197.316 30.8799 200.849 32.4466 202.516 33.2799" stroke="#BA2636"/>
<path d="M63.0158 56.7799C63.5158 55.4466 64.1158 52.6799 62.5158 52.2799C60.5158 51.7799 59.0158 55.2799 57.5158 54.2799C56.0158 53.2799 58.5158 49.7799 57.0158 48.7799C55.5158 47.7799 53.5158 52.2799 52.0158 51.2799C50.8158 50.4799 50.8491 47.6132 51.0158 46.2799" stroke="#282828"/>
<path d="M86.2387 5.41373C86.2417 4.64732 87.0702 4.16895 87.7354 4.54962L89.9847 5.83683C90.2284 5.97628 90.5195 6.00687 90.7868 5.92113L93.2546 5.1297C93.9844 4.89565 94.6954 5.53584 94.5389 6.28611L94.0097 8.82308C93.9524 9.09792 94.0133 9.3842 94.1774 9.61196L95.6927 11.7144C96.1408 12.3361 95.7517 13.2102 94.9898 13.2932L92.4134 13.5739C92.1343 13.6043 91.8809 13.7507 91.715 13.9772L90.1837 16.068C89.7309 16.6863 88.7794 16.5863 88.465 15.8873L87.4019 13.5238C87.2867 13.2678 87.0692 13.072 86.8025 12.9842L84.3409 12.1739C83.6129 11.9343 83.4139 10.9985 83.9815 10.4835L85.9008 8.74205C86.1087 8.5534 86.2278 8.28603 86.2289 8.00528L86.2387 5.41373Z" fill="#BA2636"/>
</svg>
