<svg width="16" height="16" viewBox="0 0 16 16" fill="none" xmlns="http://www.w3.org/2000/svg">
<path d="M13.2 3.79988C13.2 3.66064 13.2553 3.5271 13.3538 3.42865C13.4522 3.33019 13.5857 3.27488 13.725 3.27488C13.8642 3.27488 13.9978 3.33019 14.0962 3.42865C14.1947 3.5271 14.25 3.66064 14.25 3.79988V13.0749C14.25 14.138 13.3881 14.9999 12.325 14.9999H3.92498C2.86186 14.9999 1.99998 14.138 1.99998 13.0749V2.92488C1.99998 1.86175 2.86186 0.999878 3.92498 0.999878H13.725C13.8642 0.999878 13.9978 1.05519 14.0962 1.15365C14.1947 1.2521 14.25 1.38564 14.25 1.52488C14.25 1.66412 14.1947 1.79765 14.0962 1.89611C13.9978 1.99457 13.8642 2.04988 13.725 2.04988H3.92498C3.81008 2.04988 3.6963 2.07251 3.59014 2.11648C3.48398 2.16046 3.38752 2.22491 3.30627 2.30616C3.22502 2.38741 3.16056 2.48387 3.11659 2.59003C3.07262 2.69619 3.04998 2.80997 3.04998 2.92488V13.0749C3.04998 13.1898 3.07262 13.3036 3.11659 13.4097C3.16056 13.5159 3.22502 13.6123 3.30627 13.6936C3.38752 13.7748 3.48398 13.8393 3.59014 13.8833C3.6963 13.9272 3.81008 13.9499 3.92498 13.9499H12.325C12.4399 13.9499 12.5537 13.9272 12.6598 13.8833C12.766 13.8393 12.8625 13.7748 12.9437 13.6936C13.025 13.6123 13.0894 13.5159 13.1334 13.4097C13.1774 13.3036 13.2 13.1898 13.2 13.0749V3.79988ZM5.32498 6.77488C5.18575 6.77488 5.05221 6.71957 4.95375 6.62111C4.8553 6.52265 4.79998 6.38912 4.79998 6.24988C4.79998 6.11064 4.8553 5.9771 4.95375 5.87865C5.05221 5.78019 5.18575 5.72488 5.32498 5.72488H10.925C11.0642 5.72488 11.1978 5.78019 11.2962 5.87865C11.3947 5.9771 11.45 6.11064 11.45 6.24988C11.45 6.38912 11.3947 6.52265 11.2962 6.62111C11.1978 6.71957 11.0642 6.77488 10.925 6.77488H5.32498ZM5.32498 9.57488C5.18575 9.57488 5.05221 9.51957 4.95375 9.42111C4.8553 9.32265 4.79998 9.18912 4.79998 9.04988C4.79998 8.91064 4.8553 8.7771 4.95375 8.67865C5.05221 8.58019 5.18575 8.52488 5.32498 8.52488H8.82498C8.96422 8.52488 9.09776 8.58019 9.19621 8.67865C9.29467 8.7771 9.34998 8.91064 9.34998 9.04988C9.34998 9.18912 9.29467 9.32265 9.19621 9.42111C9.09776 9.51957 8.96422 9.57488 8.82498 9.57488H5.32498Z" fill="black"/>
</svg>
