<svg width="16" height="16" viewBox="0 0 16 16" fill="none" xmlns="http://www.w3.org/2000/svg">
<path d="M11.15 4.85C11.325 4.675 11.5 4.5 11.675 4.2375C12.2875 3.1875 12.1125 1.9625 11.2375 1.4375C10.7125 1.175 10.1 1.175 9.575 1.525C8.7 0.825 7.3 0.825 6.425 1.525C5.8125 1.175 5.2 1.175 4.675 1.4375C3.8 1.9625 3.625 3.1875 4.2375 4.2375C4.4125 4.5 4.5875 4.675 4.7625 4.85C2.6625 5.8125 1 8.7875 1 11.5C1 13.8625 2.4875 15 5.375 15H10.625C13.5125 15 15 13.8625 15 11.5C15 8.7875 13.3375 5.8125 11.15 4.85ZM10.625 14.125H5.375C2.3125 14.125 1.875 12.725 1.875 11.5C1.875 9.05 3.3625 6.5125 5.2 5.6375L6.425 5.1125L5.375 4.2375C5.2875 4.0625 5.1125 3.975 5.025 3.8C4.675 3.1 4.7625 2.4 5.1125 2.225C5.2 2.1375 5.2875 2.1375 5.375 2.1375C5.55 2.1375 5.725 2.225 5.9 2.3125L6.425 2.6625L6.8625 2.225C7.3875 1.7875 8.35 1.7875 8.875 2.225L9.3125 2.575L9.8375 2.225C10.1 2.05 10.45 2.05 10.625 2.1375C10.975 2.3125 11.15 3.0125 10.7125 3.7125C10.625 3.8875 10.5375 3.975 10.3625 4.15L9.4 5.025L10.625 5.55C12.4625 6.425 13.95 9.05 13.95 11.4125C14.125 12.725 13.6875 14.125 10.625 14.125Z" fill="black"/>
<path d="M9.75 9.3125C10.0125 9.3125 10.1875 9.1375 10.1875 8.875C10.1875 8.6125 10.0125 8.4375 9.75 8.4375H8.7L9.4875 7.65C9.75 7.475 9.75 7.125 9.575 7.0375C9.4 6.8625 9.1375 6.8625 8.9625 7.0375L8 8L7.0375 7.0375C6.8625 6.8625 6.6 6.8625 6.425 7.0375C6.25 7.125 6.25 7.475 6.425 7.65L7.2125 8.4375H6.25C5.9875 8.4375 5.8125 8.6125 5.8125 8.875C5.8125 9.1375 5.9875 9.3125 6.25 9.3125H7.5625V10.1875H6.25C5.9875 10.1875 5.8125 10.3625 5.8125 10.625C5.8125 10.8875 5.9875 11.0625 6.25 11.0625H7.5625V12.375C7.5625 12.6375 7.7375 12.8125 8 12.8125C8.2625 12.8125 8.4375 12.6375 8.4375 12.375V11.0625H9.75C10.0125 11.0625 10.1875 10.8875 10.1875 10.625C10.1875 10.3625 10.0125 10.1875 9.75 10.1875H8.4375V9.3125H9.75Z" fill="black"/>
</svg>
