<svg width="16" height="16" viewBox="0 0 16 16" fill="none" xmlns="http://www.w3.org/2000/svg">
<path d="M9.73281 9.65781C9.77969 9.44375 9.67187 9.22969 9.48125 9.13594C9.94844 8.95781 10.3766 8.67969 10.7422 8.31719C11.4234 7.63594 11.8 6.72969 11.8 5.76562C11.8 4.80312 11.4234 3.89531 10.7422 3.21406C10.0609 2.53281 9.15312 2.15625 8.18906 2.15625C7.225 2.15625 6.31719 2.53281 5.63594 3.21406C4.95469 3.89531 4.57812 4.80156 4.57812 5.76562C4.57812 6.72813 4.95469 7.63594 5.63594 8.31719C5.99531 8.67656 6.41719 8.95 6.875 9.12813C6.67344 9.17813 6.47344 9.2375 6.27812 9.31094C5.6875 9.52813 5.14219 9.84531 4.65625 10.2484C3.67969 11.0625 3.00937 12.1938 2.77031 13.4359C2.72187 13.6906 2.8875 13.9375 3.14375 13.9859C3.17344 13.9922 3.20312 13.9937 3.23281 13.9937C3.45312 13.9937 3.65156 13.8375 3.69375 13.6125C4.10937 11.4656 6 9.90938 8.19219 9.90938C8.525 9.90938 8.85469 9.94531 9.17656 10.0156C9.42656 10.0703 9.675 9.90937 9.73281 9.65781ZM5.51719 5.76562C5.51719 4.29531 6.71562 3.09687 8.18906 3.09687C9.6625 3.09687 10.8609 4.29375 10.8609 5.76562C10.8609 7.2375 9.66094 8.43281 8.18906 8.43281C6.71562 8.43281 5.51719 7.23594 5.51719 5.76562ZM9.00156 10.9922C9.00156 11.2078 9.17656 11.3828 9.39219 11.3828H12.7391C12.9547 11.3828 13.1297 11.2078 13.1297 10.9922C13.1297 10.7766 12.9547 10.6016 12.7391 10.6016H9.39219C9.175 10.6016 9.00156 10.7766 9.00156 10.9922ZM12.7375 11.9375H9.39219C9.17656 11.9375 9.00156 12.1125 9.00156 12.3281C9.00156 12.5437 9.17656 12.7188 9.39219 12.7188H12.7391C12.9547 12.7188 13.1297 12.5437 13.1297 12.3281C13.1297 12.1125 12.9547 11.9375 12.7375 11.9375ZM11.25 13.2734H9.39062C9.175 13.2734 9 13.4484 9 13.6641C9 13.8797 9.175 14.0547 9.39062 14.0547H11.25C11.4656 14.0547 11.6406 13.8797 11.6406 13.6641C11.6406 13.4484 11.4672 13.2734 11.25 13.2734Z" fill="#333333"/>
</svg>
