<svg width="16" height="16" viewBox="0 0 16 16" fill="none" xmlns="http://www.w3.org/2000/svg">
<path d="M3.26541 3.27027L3.6786 1.93327C3.76215 1.66295 3.93007 1.4265 4.15777 1.25855C4.38547 1.0906 4.66097 0.999994 4.9439 1H10.1913C10.4742 0.999994 10.7497 1.0906 10.9774 1.25855C11.2051 1.4265 11.373 1.66295 11.4565 1.93327L11.8697 3.27027H13.0541C14.2034 3.27027 15.1351 4.20203 15.1351 5.35135V12.9189C15.1351 14.0682 14.2034 15 13.0541 15H2.08109C0.931764 15 7.64713e-06 14.0682 7.62939e-06 12.9189V5.35135C7.62939e-06 4.20203 0.931764 3.27027 2.08109 3.27027H3.26541ZM3.68409 4.40541H2.08109C1.95687 4.40541 1.83386 4.42987 1.71909 4.47741C1.60432 4.52495 1.50004 4.59463 1.4122 4.68247C1.32436 4.77031 1.25469 4.87459 1.20715 4.98935C1.15961 5.10412 1.13514 5.22713 1.13514 5.35135V12.9189C1.13514 13.0431 1.15961 13.1661 1.20715 13.2809C1.25469 13.3957 1.32436 13.5 1.4122 13.5878C1.50004 13.6756 1.60432 13.7453 1.71909 13.7929C1.83386 13.8404 1.95687 13.8649 2.08109 13.8649H13.0541C13.1783 13.8649 13.3013 13.8404 13.4161 13.7929C13.5308 13.7453 13.6351 13.6756 13.7229 13.5878C13.8108 13.5 13.8805 13.3957 13.928 13.2809C13.9755 13.1661 14 13.0431 14 12.9189V5.35135C14 5.22713 13.9755 5.10412 13.928 4.98935C13.8805 4.87459 13.8108 4.77031 13.7229 4.68247C13.6351 4.59463 13.5308 4.52495 13.4161 4.47741C13.3013 4.42987 13.1783 4.40541 13.0541 4.40541H11.4511C11.3298 4.4054 11.2118 4.36656 11.1142 4.29459C11.0166 4.22262 10.9447 4.1213 10.9088 4.00546L10.3719 2.26851C10.36 2.2299 10.336 2.19612 10.3035 2.17212C10.271 2.14812 10.2317 2.13516 10.1913 2.13514H4.9439C4.90349 2.13516 4.86414 2.14812 4.83163 2.17212C4.79912 2.19612 4.77515 2.2299 4.76322 2.26851L4.22631 4.00527C4.19053 4.12114 4.11858 4.22251 4.02101 4.29452C3.92343 4.36652 3.80536 4.40539 3.68409 4.40541ZM7.56758 11.5946C6.00033 11.5946 4.72974 10.324 4.72974 8.75676C4.72974 7.18951 6.00033 5.91892 7.56758 5.91892C9.13482 5.91892 10.4054 7.18951 10.4054 8.75676C10.4054 10.324 9.13482 11.5946 7.56758 11.5946ZM7.56758 10.4595C8.01916 10.4595 8.45225 10.2801 8.77157 9.96075C9.09089 9.64143 9.27028 9.20834 9.27028 8.75676C9.27028 8.30517 9.09089 7.87208 8.77157 7.55276C8.45225 7.23345 8.01916 7.05405 7.56758 7.05405C7.11599 7.05405 6.6829 7.23345 6.36358 7.55276C6.04426 7.87208 5.86487 8.30517 5.86487 8.75676C5.86487 9.20834 6.04426 9.64143 6.36358 9.96075C6.6829 10.2801 7.11599 10.4595 7.56758 10.4595Z" fill="black"/>
</svg>
